<?xml version="1.0" standalone="no"?>
<!DOCTYPE svg PUBLIC "-//W3C//DTD SVG 20010904//EN"
 "http://www.w3.org/TR/2001/REC-SVG-20010904/DTD/svg10.dtd">
<svg version="1.0" xmlns="http://www.w3.org/2000/svg"
 width="734.000000pt" height="384.000000pt" viewBox="0 0 734.000000 384.000000"
 preserveAspectRatio="xMidYMid meet">

<g transform="translate(0.000000,384.000000) scale(0.100000,-0.100000)"
fill="#000000" stroke="none">
<path d="M5757 3320 c-14 -16 -27 -34 -29 -40 -2 -8 -11 -8 -32 0 -31 11 -86
5 -86 -10 0 -5 16 -6 35 -3 23 4 43 0 59 -11 32 -21 36 -20 36 4 0 10 14 35
31 55 17 19 27 35 21 35 -6 0 -21 -13 -35 -30z"/>
<path d="M4581 3264 c-17 -14 -31 -33 -31 -41 0 -10 -5 -13 -17 -8 -35 14 -90
17 -97 6 -5 -7 5 -11 29 -11 20 0 49 -7 65 -15 29 -15 30 -15 30 6 0 12 16 37
36 55 42 40 30 46 -15 8z"/>
<path d="M5095 3256 c-48 -22 -110 -76 -88 -76 5 0 18 9 29 21 54 60 181 82
254 45 44 -23 88 -63 106 -98 12 -23 21 -28 53 -28 31 0 44 -6 65 -31 14 -17
26 -34 26 -39 0 -5 -26 -11 -57 -13 l-58 -3 63 -2 c57 -2 62 0 62 19 0 30 -62
89 -94 89 -19 0 -43 17 -84 58 -84 86 -177 105 -277 58z"/>
<path d="M3943 3183 c-32 -6 -36 -32 -11 -64 13 -16 64 -80 113 -143 50 -64
94 -115 98 -116 5 0 -7 20 -25 45 -56 77 -59 83 -50 89 5 3 33 -26 62 -64 29
-39 57 -70 62 -70 8 0 -42 68 -180 243 -29 37 -50 72 -47 77 3 6 5 9 3 9 -2
-1 -13 -4 -25 -6z m28 -55 c13 -18 26 -35 29 -38 19 -15 59 -78 54 -83 -4 -3
-27 21 -53 54 -70 92 -74 99 -63 99 6 0 21 -15 33 -32z"/>
<path d="M3880 3140 c-6 -11 -8 -20 -6 -20 3 0 10 9 16 20 6 11 8 20 6 20 -3
0 -10 -9 -16 -20z"/>
<path d="M3883 3064 c-7 -19 1 -33 69 -126 28 -38 55 -68 60 -68 6 0 4 8 -4
18 -25 29 -30 42 -15 42 7 0 20 -12 27 -26 8 -14 23 -30 33 -36 11 -5 -3 21
-33 64 -29 40 -64 90 -77 111 -27 39 -50 47 -60 21z m63 -59 c21 -30 35 -58
32 -60 -5 -6 -78 95 -78 108 0 16 12 4 46 -48z"/>
<path d="M5868 3040 c21 -13 35 -31 39 -50 6 -35 9 -35 52 -14 19 9 42 13 56
10 14 -4 25 -2 25 4 0 13 -66 13 -90 0 -16 -9 -22 -5 -35 20 -15 30 -42 50
-67 50 -7 0 2 -9 20 -20z"/>
<path d="M4888 3033 c45 -2 119 -2 165 0 45 1 8 3 -83 3 -91 0 -128 -2 -82 -3z"/>
<path d="M1040 2921 c-47 -15 -105 -49 -134 -80 -39 -40 -24 -40 22 0 60 53
117 74 202 74 115 0 215 -57 261 -147 16 -30 24 -38 39 -33 52 17 132 -34 142
-90 3 -18 -3 -20 -64 -21 -37 0 -70 -3 -74 -7 -4 -4 29 -7 74 -7 78 0 82 1 82
23 0 58 -67 117 -134 117 -26 0 -38 6 -46 21 -26 47 -89 104 -145 131 -49 23
-73 28 -130 27 -38 0 -81 -4 -95 -8z"/>
<path d="M3713 2923 c9 -2 25 -2 35 0 9 3 1 5 -18 5 -19 0 -27 -2 -17 -5z"/>
<path d="M6135 2901 c-55 -26 -132 -91 -109 -91 6 0 23 13 38 29 16 16 51 39
79 51 143 62 301 15 380 -111 27 -45 33 -49 58 -44 55 12 129 -45 129 -100 0
-14 -11 -16 -65 -14 -36 1 -68 -1 -72 -4 -3 -4 30 -7 75 -7 92 0 95 4 65 67
-21 45 -67 73 -119 73 -37 0 -43 4 -54 30 -17 40 -81 97 -144 126 -77 36 -180
34 -261 -5z"/>
<path d="M3590 2900 c-8 -5 -10 -10 -5 -10 6 0 17 5 25 10 8 5 11 10 5 10 -5
0 -17 -5 -25 -10z"/>
<path d="M3926 2901 c-3 -5 1 -12 10 -15 22 -8 25 -4 9 11 -8 7 -16 9 -19 4z"/>
<path d="M4280 2889 c0 -5 5 -7 10 -4 6 3 10 8 10 11 0 2 -4 4 -10 4 -5 0 -10
-5 -10 -11z"/>
<path d="M3532 2863 c-24 -24 -24 -25 -2 -8 42 33 44 35 37 35 -4 0 -19 -12
-35 -27z"/>
<path d="M4254 2859 c-3 -6 -20 -19 -38 -30 -17 -10 -26 -19 -20 -19 6 0 28
14 49 30 21 17 33 30 27 30 -6 0 -14 -5 -18 -11z"/>
<path d="M3640 2850 c-12 -8 -8 -17 25 -52 22 -23 47 -48 55 -54 8 -7 11 -16
7 -20 -8 -9 -118 106 -112 116 2 3 -5 6 -16 6 -10 0 -19 -2 -19 -4 0 -2 64
-70 142 -152 119 -125 145 -147 160 -139 10 5 18 15 18 21 0 6 -57 69 -127
140 -102 103 -125 131 -113 138 8 5 11 10 5 10 -5 0 -17 -5 -25 -10z m233
-283 c-3 -6 -36 23 -73 64 -38 41 -65 78 -62 83 3 6 36 -23 73 -64 37 -40 65
-78 62 -83z"/>
<path d="M3790 2763 c93 -88 135 -109 135 -69 0 21 -142 152 -153 141 -4 -4 1
-12 10 -19 10 -7 15 -16 11 -19 -3 -4 -21 7 -40 23 -18 17 -39 30 -45 30 -6 0
31 -39 82 -87z m74 -21 c49 -45 53 -52 34 -52 -14 0 -98 80 -98 93 0 14 15 5
64 -41z"/>
<path d="M3526 2825 c-10 -8 -22 -12 -27 -10 -4 3 -11 0 -15 -7 -4 -7 -4 -10
1 -6 12 11 36 -42 30 -63 -4 -10 -9 -18 -13 -18 -39 6 -46 -21 -17 -61 12 -17
26 -52 31 -78 7 -44 8 -45 13 -17 l7 30 19 -32 c11 -18 26 -33 34 -33 12 0 12
3 3 12 -7 7 -12 19 -12 27 0 9 10 2 23 -16 12 -18 28 -35 35 -38 16 -6 13 0
-55 97 -47 67 -69 129 -45 128 4 -1 33 -36 65 -78 79 -106 124 -158 131 -152
3 3 -15 32 -40 64 -25 32 -43 60 -40 64 6 6 14 -3 68 -75 30 -41 63 -62 75
-49 4 3 0 6 -8 7 -18 0 -234 282 -233 303 2 20 -5 20 -30 1z m68 -92 c58 -73
63 -83 47 -83 -12 0 -121 138 -121 152 0 19 19 2 74 -69z m-55 -82 c23 -33 37
-62 32 -65 -11 -7 -92 104 -85 116 8 12 8 12 53 -51z"/>
<path d="M3820 2830 c0 -4 9 -10 20 -13 11 -3 20 -2 20 3 0 4 -9 10 -20 13
-11 3 -20 2 -20 -3z"/>
<path d="M3968 2793 c6 -2 18 -2 25 0 6 3 1 5 -13 5 -14 0 -19 -2 -12 -5z"/>
<path d="M2473 2765 c-102 -28 -196 -90 -248 -165 l-27 -39 20 -29 c38 -53
113 -114 179 -145 128 -59 289 -47 412 33 57 37 131 119 131 146 0 7 -24 39
-54 72 -109 117 -268 166 -413 127z m268 -42 c70 -33 179 -130 179 -160 0 -27
-115 -132 -174 -159 -106 -48 -247 -48 -351 1 -59 29 -143 99 -164 138 -13 24
-11 29 23 71 113 137 325 185 487 109z"/>
<path d="M2505 2710 c-28 -11 -72 -60 -84 -93 -41 -107 53 -226 168 -214 144
15 194 210 75 291 -30 20 -51 26 -89 25 -27 0 -59 -4 -70 -9z m118 -14 c43
-17 85 -68 93 -110 8 -44 -24 -118 -62 -143 -19 -12 -47 -18 -85 -18 -62 0
-96 21 -125 77 -59 113 62 243 179 194z"/>
<path d="M2539 2633 c-38 -10 -55 -82 -29 -116 30 -38 78 -40 112 -6 29 29 38
65 14 56 -21 -8 -56 21 -56 49 0 23 -7 26 -41 17z m49 -71 c3 -16 -2 -22 -17
-22 -26 0 -36 17 -20 36 16 19 33 13 37 -14z"/>
<path d="M3456 2755 c-9 -26 -7 -32 5 -12 6 10 9 21 6 23 -2 3 -7 -2 -11 -11z"/>
<path d="M4294 2636 l-31 -31 34 -31 33 -31 33 30 32 30 -33 34 c-19 18 -35
32 -35 32 -1 -1 -16 -16 -33 -33z m60 -14 c15 -18 15 -20 -4 -37 -19 -17 -21
-17 -40 0 -19 17 -19 19 -4 37 10 10 20 18 24 18 4 0 14 -8 24 -18z"/>
<path d="M4117 2617 c-10 -19 -35 -43 -55 -55 l-37 -21 26 -10 c26 -9 79 -65
79 -82 0 -19 16 -7 31 24 8 17 29 39 47 47 17 8 32 18 32 22 0 3 -16 16 -36
27 -20 12 -41 35 -47 51 -6 17 -14 30 -17 30 -3 0 -14 -15 -23 -33z m55 -40
l33 -33 -35 -34 -35 -35 -31 34 -31 34 31 33 c17 18 32 33 33 33 0 1 16 -14
35 -32z"/>
<path d="M4895 2631 c-42 -20 -113 -86 -102 -97 3 -3 20 10 38 30 42 48 78 66
134 66 59 0 104 -19 138 -60 48 -56 59 -96 55 -190 -4 -74 -9 -94 -38 -149
-38 -72 -110 -155 -183 -213 -40 -31 -57 -38 -92 -38 -38 0 -47 5 -74 37 -17
20 -33 34 -36 31 -13 -13 57 -78 91 -84 48 -9 87 10 162 80 167 156 226 314
172 459 -45 119 -162 176 -265 128z"/>
<path d="M630 2621 c0 -8 69 -11 212 -11 116 0 209 2 207 4 -2 2 -97 6 -211
10 -145 5 -208 4 -208 -3z"/>
<path d="M5770 2620 c0 -6 75 -10 212 -10 116 0 209 2 207 4 -10 10 -419 16
-419 6z"/>
<path d="M1996 2571 c-7 -11 18 -33 27 -24 4 3 7 12 7 20 0 15 -26 18 -34 4z"/>
<path d="M2060 2566 c0 -8 4 -17 9 -20 11 -7 33 18 24 27 -12 12 -33 7 -33 -7z"/>
<path d="M2125 2570 c-3 -6 1 -13 10 -16 19 -8 30 0 20 15 -8 14 -22 14 -30 1z"/>
<path d="M3308 2573 c6 -2 18 -2 25 0 6 3 1 5 -13 5 -14 0 -19 -2 -12 -5z"/>
<path d="M4890 2560 c-23 -23 -26 -78 -9 -131 15 -45 34 -64 25 -26 l-7 29 30
-21 c78 -56 92 -117 40 -176 -33 -38 -26 -50 8 -12 66 72 55 134 -36 201 -47
35 -61 61 -53 100 3 15 11 18 48 13 49 -5 58 6 17 21 -22 8 -24 11 -8 11 38 2
85 -38 110 -92 46 -98 26 -208 -53 -289 -20 -21 -30 -38 -24 -38 23 0 82 74
103 130 37 97 11 213 -61 274 -40 33 -100 36 -130 6z"/>
<path d="M3238 2563 c7 -3 16 -2 19 1 4 3 -2 6 -13 5 -11 0 -14 -3 -6 -6z"/>
<path d="M3165 2540 c-3 -6 1 -7 9 -4 18 7 21 14 7 14 -6 0 -13 -4 -16 -10z"/>
<path d="M3110 2495 c-19 -19 -30 -35 -24 -34 9 0 70 69 62 69 -2 0 -19 -16
-38 -35z"/>
<path d="M3840 2498 c-19 -16 -26 -26 -15 -20 18 9 64 53 54 52 -2 -1 -20 -15
-39 -32z"/>
<path d="M1997 2514 c-9 -10 2 -24 19 -24 8 0 14 7 14 15 0 15 -21 21 -33 9z"/>
<path d="M3165 2493 c-16 -3 7 -31 123 -148 79 -79 141 -148 138 -153 -3 -5 6
-7 20 -4 29 5 42 28 25 45 -6 6 -11 26 -11 44 0 27 4 33 20 33 42 0 35 31 -16
79 -83 77 -124 111 -135 111 -5 0 5 -13 23 -29 18 -16 30 -33 25 -37 -4 -4
-25 10 -47 31 -22 21 -42 36 -45 33 -4 -3 33 -44 81 -90 81 -79 87 -87 79
-114 l-7 -29 -112 118 c-61 64 -118 116 -126 116 -8 -1 -24 -3 -35 -6z m94
-64 c29 -33 50 -63 46 -67 -6 -6 -125 111 -125 123 0 19 34 -4 79 -56z m226
-97 c-3 -3 -27 16 -54 41 -27 25 -46 48 -43 52 3 3 27 -16 54 -42 26 -26 45
-49 43 -51z m-86 -52 c35 -38 59 -70 55 -70 -11 0 -134 122 -134 132 0 20 22
3 79 -62z"/>
<path d="M1997 2454 c-9 -10 2 -24 19 -24 8 0 14 7 14 15 0 15 -21 21 -33 9z"/>
<path d="M3745 2450 c-13 -6 -15 -9 -5 -9 8 0 22 4 30 9 18 12 2 12 -25 0z"/>
<path d="M3638 2433 c12 -2 30 -2 40 0 9 3 -1 5 -23 4 -22 0 -30 -2 -17 -4z"/>
<path d="M5553 2405 c-13 -9 -23 -26 -23 -39 0 -12 -16 -37 -35 -56 -30 -29
-35 -39 -29 -65 4 -16 11 -33 16 -36 6 -4 6 -9 -1 -13 -19 -12 26 -64 65 -75
20 -5 41 -8 47 -6 7 3 26 -7 42 -20 l30 -25 -98 0 c-54 0 -107 -5 -118 -10
-24 -14 -45 -54 -54 -107 -4 -24 -10 -45 -15 -48 -4 -2 -52 -10 -106 -16 -55
-6 -102 -16 -105 -21 -3 -5 -24 -5 -50 1 -60 14 -69 14 -76 -5 -3 -9 -17 -27
-30 -40 -21 -22 -33 -24 -108 -24 -79 0 -87 -2 -117 -29 -18 -16 -30 -32 -27
-36 4 -3 20 8 37 25 l30 30 127 0 c127 0 127 0 156 -29 40 -41 40 -91 -1 -132
-27 -27 -35 -30 -87 -27 -52 3 -58 5 -61 26 -2 13 3 31 12 41 13 14 14 20 3
35 -16 21 -47 11 -47 -15 0 -10 5 -19 10 -19 6 0 10 -16 10 -35 l0 -35 -61 0
c-54 0 -64 3 -91 30 -34 34 -52 33 -22 -1 27 -30 76 -49 128 -49 l45 0 4 -42
4 -43 1 41 2 41 66 6 c57 4 71 9 97 36 25 24 31 39 32 73 0 48 10 61 34 47 10
-6 52 -5 119 3 l102 14 0 -22 c0 -12 -11 -99 -25 -194 -14 -95 -25 -176 -25
-182 0 -6 15 -8 35 -6 34 4 35 3 41 -39 3 -23 18 -113 33 -200 l27 -158 41 -3
41 -3 5 43 c4 24 9 129 13 233 4 109 10 181 15 170 4 -11 26 -108 50 -215 23
-107 46 -203 51 -213 7 -14 19 -17 46 -15 l37 3 3 198 2 197 31 0 c33 0 32
-11 10 113 -5 26 -6 47 -4 47 3 0 18 -9 34 -21 16 -11 37 -19 46 -17 9 2 33
30 52 63 32 52 46 64 101 92 36 18 68 32 73 32 4 1 12 -11 18 -26 6 -16 17
-41 25 -58 22 -42 29 -134 15 -192 -8 -32 -39 -89 -90 -163 l-78 -115 -99 -5
-99 -5 -3 -62 c-3 -73 -22 -93 -84 -93 -32 0 -40 -4 -49 -27 -5 -14 -8 -32 -5
-40 4 -10 -8 -13 -48 -13 -51 0 -53 1 -48 25 6 35 -14 56 -54 53 -19 -1 -39 3
-46 10 -7 7 -20 12 -30 12 -25 0 -128 -70 -128 -86 0 -12 -58 -14 -325 -14
l-325 0 11 24 c10 21 2 41 -70 167 -45 79 -81 149 -81 156 0 9 21 14 73 15
l72 2 -75 5 -75 6 -3 89 c-2 74 0 90 14 101 10 7 15 19 11 29 -9 24 -155 24
-164 0 -4 -10 1 -22 10 -29 13 -10 17 -29 17 -91 0 -43 -4 -85 -9 -93 -7 -10
-46 -12 -198 -8 -104 2 -198 9 -209 14 -25 14 -44 6 -44 -18 0 -24 27 -36 43
-20 7 7 75 11 210 11 l198 0 -7 -22 c-3 -13 -22 -51 -41 -86 l-35 -63 -22 19
c-27 25 -84 52 -108 52 -14 0 -18 8 -18 35 0 19 -4 35 -10 35 -5 0 -10 -16
-10 -35 l0 -36 -200 1 -200 2 0 59 c0 32 1 59 3 59 1 0 20 -7 42 -15 47 -17
65 -18 65 -6 0 4 -16 11 -36 14 -51 9 -100 49 -117 99 -10 27 -20 116 -27 243
-6 110 -13 212 -16 227 -6 24 -3 28 35 38 46 12 61 8 61 -19 0 -29 26 -46 45
-31 13 10 15 31 13 94 l-3 81 41 3 c47 3 48 2 60 -101 10 -88 24 -67 24 37 0
99 8 118 45 111 11 -2 29 -4 41 -4 19 -1 22 -9 30 -98 8 -88 11 -98 29 -98 17
0 22 10 30 62 5 34 14 65 18 70 10 9 79 4 91 -7 4 -5 5 -71 1 -148 l-7 -140
-45 -6 c-25 -3 -64 -14 -86 -24 -47 -21 -156 -116 -145 -127 3 -4 23 12 43 34
21 22 66 55 101 72 58 29 70 31 137 27 56 -4 84 -11 120 -32 26 -15 47 -31 47
-35 0 -4 -16 -38 -36 -76 -43 -82 -111 -173 -157 -209 -17 -14 -28 -26 -23
-26 19 0 76 52 121 112 47 62 105 167 105 189 0 6 16 29 35 52 19 22 35 48 35
58 0 10 9 20 19 24 25 7 65 88 57 113 -7 20 -45 42 -72 42 -31 0 -84 -33 -90
-55 -3 -13 -16 -26 -29 -29 -23 -6 -85 -80 -85 -102 0 -7 -8 -10 -21 -7 -17 5
-19 11 -15 42 3 20 8 117 11 216 4 98 9 183 12 187 2 5 0 15 -7 23 -7 9 -8 15
0 20 5 3 10 37 10 74 0 53 -4 72 -18 84 -24 22 -44 21 -73 -2 -20 -16 -24 -29
-25 -87 -2 -38 -7 -81 -13 -95 -5 -15 -12 -58 -15 -95 -4 -63 -9 -99 -22 -161
-2 -13 -8 -23 -13 -23 -10 0 -15 81 -22 352 -4 145 -7 169 -23 187 -23 26 -58
27 -78 4 -20 -23 -34 -149 -18 -168 8 -10 8 -15 0 -20 -7 -5 -11 -37 -10 -89
1 -44 1 -99 0 -121 -1 -37 -2 -38 -11 -15 -6 14 -12 55 -14 92 -2 37 -6 72
-10 78 -4 6 -9 41 -11 77 -5 72 -22 103 -59 103 -35 0 -58 -33 -51 -73 3 -18
9 -80 12 -137 3 -58 7 -107 9 -110 8 -14 7 -184 -1 -187 -10 -3 -38 55 -35 71
3 16 -22 117 -31 122 -4 3 -8 20 -8 38 0 74 -37 125 -80 111 -32 -10 -41 -38
-30 -92 6 -26 12 -73 15 -104 2 -31 9 -68 14 -82 6 -14 17 -136 26 -269 16
-245 24 -296 51 -318 19 -17 20 -160 1 -160 -22 0 -91 -37 -112 -60 -16 -18
-21 -39 -23 -111 l-4 -89 -40 0 c-38 0 -39 0 -24 22 21 30 20 50 -5 82 -54 69
-161 -6 -119 -85 10 -18 7 -19 -69 -19 l-80 0 -3 62 -3 63 -35 0 -35 0 -3 -63
-3 -62 -39 0 -40 0 0 75 c0 71 1 75 23 76 12 0 96 2 187 2 160 2 165 3 168 23
3 19 -5 23 -90 39 -51 9 -101 19 -111 22 -16 4 -17 18 -15 151 l3 147 83 2
c129 2 122 -15 122 298 0 241 -1 263 -18 278 -16 15 -48 17 -234 17 -195 0
-216 -2 -231 -18 -10 -10 -17 -26 -17 -35 0 -8 -10 -17 -22 -19 -21 -3 -23 -7
-42 -89 -5 -21 -15 -29 -48 -37 -37 -10 -46 -8 -87 15 -25 15 -57 35 -70 45
-24 18 -75 24 -106 12 -9 -4 -96 -93 -192 -198 l-175 -190 22 -18 22 -18 -58
-73 c-32 -39 -95 -108 -141 -152 -46 -44 -83 -88 -83 -98 0 -10 21 -40 46 -67
71 -76 78 -74 217 78 64 70 124 138 133 150 8 12 18 22 22 22 4 0 27 -25 51
-56 l43 -56 -4 -89 c-5 -108 6 -125 85 -128 10 -1 17 -9 17 -21 0 -24 -18 -26
-48 -4 -35 24 -52 11 -52 -41 l0 -45 -80 0 c-47 0 -80 -4 -80 -10 0 -7 678
-10 2015 -10 1337 0 2015 3 2015 10 0 6 -45 10 -115 10 l-115 0 0 33 c1 74 52
146 190 268 l95 83 5 -71 c3 -39 9 -75 13 -79 4 -5 27 -9 50 -9 l42 -1 3 -112
3 -112 -61 0 c-38 0 -59 -4 -55 -10 8 -14 672 -14 680 0 4 7 -49 10 -152 10
l-158 0 3 83 c2 46 -1 99 -5 118 -9 32 -12 34 -56 37 l-46 3 -3 117 -3 117
-83 3 c-75 3 -83 5 -76 20 46 106 54 179 30 269 -9 32 -10 55 -4 61 17 17 -59
179 -79 165 -1 -2 -4 0 -5 3 -2 3 24 17 57 31 72 30 86 41 83 61 -2 11 40 33
150 80 140 59 170 80 142 97 -5 3 -78 -23 -162 -58 -121 -51 -155 -61 -161
-51 -12 21 -28 18 -155 -34 -110 -46 -121 -49 -188 -44 -62 4 -79 0 -142 -27
l-72 -30 -105 76 c-58 41 -105 77 -105 80 0 2 6 14 14 26 20 31 30 133 17 165
-6 15 -24 34 -40 43 -18 10 -32 29 -35 46 -4 17 -22 45 -41 63 -30 29 -43 34
-92 38 -42 2 -64 -1 -80 -13z m163 -38 c13 -15 29 -45 35 -67 8 -26 18 -40 29
-40 19 0 43 -25 54 -53 9 -26 -22 -87 -50 -99 -13 -6 -21 -15 -18 -20 3 -5 17
-2 30 7 28 18 33 2 9 -31 -20 -29 -69 -37 -108 -18 l-32 15 28 -25 c30 -28 48
-32 77 -16 16 9 37 -3 125 -67 57 -42 107 -85 110 -94 4 -10 -1 -32 -11 -50
-14 -28 -100 -167 -110 -178 -2 -2 -26 11 -53 29 l-50 32 39 62 c22 35 40 66
40 69 0 9 -91 77 -102 77 -5 0 -7 -9 -3 -19 4 -13 -3 -28 -20 -45 -14 -14 -25
-30 -25 -36 0 -5 -3 -10 -8 -10 -4 0 -18 59 -31 131 -25 141 -23 157 25 139
18 -7 21 -6 17 11 -3 10 -14 19 -24 19 -11 0 -19 5 -19 11 0 5 -4 8 -9 4 -16
-10 -50 45 -57 93 -3 26 -12 54 -20 62 -7 8 -18 36 -25 62 -18 67 -4 81 75 76
49 -4 63 -9 82 -31z m-1667 -11 c7 -9 11 -41 9 -83 l-3 -68 -40 0 -40 0 -3 68
c-3 75 7 97 43 97 12 0 28 -6 34 -14z m1496 -63 c3 -16 12 -35 19 -43 8 -8 16
-31 19 -50 3 -19 8 -43 12 -52 12 -30 -50 -23 -83 9 l-26 26 22 10 c29 13 28
27 -2 27 -35 0 -39 37 -7 73 14 15 28 27 32 27 4 0 10 -12 14 -27z m-1675 -8
c6 -8 14 -41 17 -73 5 -59 5 -59 -23 -65 -42 -8 -54 8 -54 72 0 73 28 104 60
66z m388 -7 c14 -14 16 -106 3 -126 -5 -8 -23 -12 -47 -10 l-39 3 3 54 c2 30
7 62 13 72 11 21 49 25 67 7z m-199 -102 c7 -9 11 -40 9 -78 l-3 -63 -47 -3
c-34 -2 -48 1 -49 10 -2 34 3 133 7 140 9 14 71 9 83 -6z m-341 -100 c15 -53
11 -63 -32 -68 -27 -3 -31 1 -39 35 -5 20 -6 49 -3 63 5 20 12 25 34 22 22 -3
29 -10 40 -52z m186 22 c15 -93 14 -101 -24 -109 -19 -4 -38 -4 -43 0 -10 10
-21 106 -14 125 4 10 19 16 41 16 32 0 36 -3 40 -32z m354 -43 c4 -79 -9 -96
-63 -86 l-40 7 3 64 c2 36 8 70 13 76 5 6 24 8 46 5 l38 -6 3 -60z m2627 46
c-17 -15 -286 -124 -292 -117 -3 3 3 9 13 13 10 3 75 30 144 59 125 53 153 62
135 45z m-1385 -49 c0 -5 -9 -35 -21 -68 -13 -38 -19 -75 -16 -104 2 -25 -2
-81 -10 -125 -14 -78 -42 -328 -43 -372 0 -15 -6 -23 -18 -23 -16 0 -15 18 18
251 20 138 32 253 28 255 -4 3 -10 -18 -14 -45 l-6 -49 -107 -14 c-120 -16
-117 -17 -122 63 l-4 44 105 10 105 10 17 70 c11 45 25 76 39 87 22 19 49 24
49 10z m155 -139 l28 -148 -31 -57 c-18 -31 -30 -62 -27 -70 4 -10 -13 -13
-81 -11 -48 1 -89 4 -91 7 -2 2 4 51 14 109 13 70 16 111 10 125 -7 15 -2 45
17 107 l27 85 53 0 54 0 27 -147z m905 102 c0 -3 -21 -15 -47 -26 -78 -34 -93
-39 -93 -31 0 4 28 19 63 34 66 28 77 31 77 23z m-2812 -60 c20 -61 13 -88
-26 -99 -43 -12 -51 -3 -54 69 -3 55 -1 59 22 66 37 10 44 6 58 -36z m2826 19
c8 -21 13 -17 -61 -47 -53 -22 -64 -23 -74 -11 -15 18 -15 18 52 48 65 30 75
31 83 10z m-3134 -14 c19 -19 20 -33 20 -267 0 -276 -2 -283 -67 -283 -72 0
-73 3 -73 176 0 151 -1 156 -25 179 -35 36 -115 36 -150 0 -22 -21 -25 -34
-26 -97 -1 -48 -4 -63 -8 -43 -4 21 -13 31 -28 33 -14 2 -23 12 -25 25 -3 19
-9 22 -41 20 l-37 -2 0 119 c0 169 -14 160 240 160 187 0 201 -1 220 -20z
m2989 -59 c25 -58 26 -67 7 -74 -9 -4 -22 13 -39 51 -14 31 -23 60 -21 64 13
20 33 4 53 -41z m156 31 c-17 -15 -116 -53 -127 -50 -6 2 18 16 53 30 68 28
89 33 74 20z m-225 -6 c0 -2 -13 -9 -30 -15 -16 -5 -30 -6 -30 -1 0 5 8 11 18
13 24 7 42 8 42 3z m-61 -69 l24 -58 -34 -36 c-32 -34 -98 -69 -210 -113 -49
-20 -50 -20 -39 -1 14 28 14 28 -30 57 l-40 27 21 34 c12 20 25 49 28 66 6 27
16 35 71 59 51 22 78 27 125 25 l59 -2 25 -58z m-3331 -28 c3 -66 1 -76 -19
-92 -12 -10 -25 -14 -29 -10 -12 13 -21 63 -11 63 5 0 12 21 16 46 9 60 15 76
29 71 6 -2 12 -34 14 -78z m3406 65 c7 -19 8 -17 -22 -33 -12 -7 -27 -9 -32
-6 -18 11 -11 35 13 45 31 12 34 12 41 -6z m-559 -48 c17 -13 28 -27 25 -30
-8 -7 -70 31 -70 44 0 16 13 12 45 -14z m-3113 -15 c70 -44 107 -132 56 -131
-15 1 -38 20 -67 55 -25 30 -47 53 -49 50 -4 -4 11 -26 69 -97 11 -15 33 -21
92 -25 l77 -6 0 -32 c0 -18 -3 -45 -6 -61 l-5 -29 -102 6 -101 6 -68 74 c-37
41 -67 69 -68 63 0 -13 131 -150 149 -156 11 -3 -3 -36 -54 -124 -37 -65 -72
-124 -77 -131 -7 -9 -47 13 -154 84 -142 96 -143 97 -126 118 146 165 319 349
336 355 35 14 50 11 98 -19z m2461 10 c4 -4 10 -24 14 -43 4 -30 2 -37 -13
-40 -11 -2 -32 6 -47 19 -24 20 -59 29 -89 24 -5 0 -8 3 -8 8 0 15 47 22 74
11 14 -5 26 -6 26 -1 0 5 -13 14 -30 20 -16 5 -30 13 -30 17 0 8 92 -5 103
-15z m1227 14 c0 -2 -13 -11 -30 -20 -16 -9 -30 -11 -30 -6 0 7 22 19 58 30 1
1 2 -1 2 -4z m-596 -36 l35 -20 -35 -55 c-19 -30 -32 -59 -29 -64 3 -6 2 -10
-2 -10 -5 0 -21 -12 -36 -26 -30 -27 -72 -27 -83 0 -4 12 27 71 92 174 17 27
15 27 58 1z m600 -13 c-6 -27 36 -136 65 -165 29 -29 37 -116 16 -186 -18 -63
-65 -115 -242 -272 -45 -40 -94 -93 -110 -118 -15 -24 -32 -44 -36 -45 -12 0
10 36 84 141 106 148 114 171 113 314 0 87 -5 134 -18 172 l-17 52 40 36 c22
20 43 45 46 56 6 18 34 36 58 38 4 1 5 -10 1 -23z m126 -46 c12 -33 20 -63 18
-66 -3 -2 -14 19 -26 48 -11 29 -24 62 -28 72 -5 13 -4 17 3 13 6 -4 21 -34
33 -67z m-1986 54 c22 -8 20 -42 -4 -81 -24 -41 -46 -41 -88 -4 -39 36 -39 44
-6 70 26 21 67 27 98 15z m1959 -61 c20 -51 24 -69 14 -75 -21 -13 -24 -10
-53 58 -23 55 -25 67 -13 75 23 14 24 12 52 -58z m-50 -30 c14 -35 23 -63 19
-63 -4 0 -18 26 -31 58 -34 83 -36 89 -23 77 5 -5 22 -38 35 -72z m-3544 11
c15 -59 14 -69 -3 -55 -7 6 -34 14 -59 17 -43 6 -45 8 -49 43 l-3 36 52 1 51
2 11 -44z m391 17 c5 -11 10 -83 10 -161 0 -78 5 -150 10 -161 10 -18 6 -19
-90 -19 -96 0 -100 1 -90 19 5 11 10 85 10 168 0 103 4 153 12 161 7 7 38 12
70 12 46 0 59 -4 68 -19z m1174 -65 c19 -25 19 -25 -14 -65 l-32 -41 -36 22
c-21 12 -45 27 -54 32 -27 16 -22 37 17 79 l35 39 33 -21 c17 -11 41 -31 51
-45z m-1494 20 c0 -16 -27 -29 -41 -20 -15 9 -10 22 9 27 29 8 32 7 32 -7z
m3055 -44 c-3 -8 -28 -53 -56 -99 l-50 -83 -27 14 c-63 34 -66 38 -46 79 10
20 25 37 34 37 9 0 27 19 40 43 37 68 37 68 76 45 24 -14 33 -26 29 -36z
m-2990 8 c-5 -17 -2 -20 24 -20 34 0 51 -17 25 -27 -16 -6 -16 -7 1 -19 21
-15 11 -36 -13 -27 -14 5 -15 3 -4 -8 31 -34 1 -36 -126 -9 l-53 12 3 40 c3
40 4 41 58 58 77 25 93 25 85 0z m3212 -25 c17 -50 11 -67 -23 -63 -20 2 -29
12 -40 43 -7 22 -14 41 -14 43 0 5 45 21 54 18 5 -1 15 -20 23 -41z m-424 2
l29 -23 -33 -67 c-29 -57 -35 -65 -45 -52 -8 11 -14 12 -19 6 -11 -19 -23 -12
-17 12 5 20 4 21 -13 7 -17 -14 -18 -13 -13 5 3 11 9 28 13 38 5 12 2 17 -9
17 -9 0 -16 3 -16 8 1 7 80 70 90 71 3 1 18 -9 33 -22z m716 -24 c14 -49 14
-138 0 -188 -14 -51 -47 -98 -65 -91 -19 7 -44 -21 -45 -52 0 -21 -20 -43 -95
-107 -140 -118 -195 -193 -210 -284 -5 -30 -11 -41 -24 -41 -16 0 -18 8 -16
58 2 80 47 153 151 246 169 151 215 200 242 253 24 50 25 61 20 149 -5 87 -4
94 13 94 13 0 22 -11 29 -37z m-854 -39 c8 -12 12 -31 8 -40 -4 -10 0 -21 9
-28 26 -19 38 -53 38 -105 0 -40 4 -54 20 -63 19 -12 20 -24 20 -195 l0 -183
-27 0 -28 0 -58 252 -57 252 32 33 c35 37 19 47 -19 11 l-23 -21 -23 21 c-37
35 -55 26 -20 -10 28 -30 30 -38 28 -93 -2 -33 -6 -136 -9 -230 -9 -209 -10
-215 -40 -215 -22 0 -25 6 -40 98 -10 53 -28 158 -41 232 -20 113 -22 148 -15
215 5 44 9 83 9 87 1 4 50 6 111 6 103 0 110 -2 125 -24z m-2581 -161 c-25
-18 -84 -16 -106 4 -13 11 -18 30 -18 63 l0 47 48 -9 c44 -8 48 -7 67 17 l20
27 3 -68 c2 -56 0 -71 -14 -81z m3160 125 c20 -98 11 -179 -30 -260 -39 -77
-146 -221 -154 -208 -4 7 -13 16 -19 19 -7 5 10 36 50 92 94 129 114 177 113
279 -1 78 5 99 28 100 4 0 10 -10 12 -22z m-3306 -7 c8 -1 12 -19 12 -54 0
-77 17 -90 123 -91 l82 -1 3 -147 c2 -133 1 -147 -15 -151 -52 -14 -72 -16
-78 -7 -3 5 -21 10 -38 10 l-32 0 3 108 c3 86 0 111 -11 121 -10 8 -51 11
-128 9 l-114 -3 -3 -117 -3 -118 -39 0 -40 0 0 73 c0 45 -5 80 -14 92 -11 17
-9 38 17 151 l29 131 117 -3 c64 -1 122 -3 129 -3z m2877 -130 l7 -51 -41 0
-41 0 0 43 c0 23 -3 52 -6 65 -6 21 -4 22 20 16 20 -5 27 -2 33 12 6 16 8 14
14 -8 4 -15 10 -50 14 -77z m-3173 -25 c-18 -80 -18 -80 -35 -56 -9 14 -17 27
-17 30 0 14 64 123 67 114 1 -5 -6 -45 -15 -88z m1890 55 c-5 -3 -41 -4 -78
-1 l-69 4 70 6 c71 5 95 3 77 -9z m-2183 -86 l29 -39 -61 -71 c-100 -116 -211
-225 -227 -225 -20 0 -104 84 -99 99 3 7 45 53 94 104 50 51 110 118 135 149
l45 57 27 -17 c15 -10 41 -35 57 -57z m2163 -52 l3 -118 78 -133 c78 -135 87
-158 65 -180 -17 -17 -369 -17 -386 0 -21 21 -13 47 49 155 96 166 99 174 99
291 l0 102 44 0 44 0 4 -117z m-1284 -56 l3 -147 -31 0 -30 0 0 144 c0 129 2
145 18 149 9 3 22 4 27 2 6 -1 11 -61 13 -148z m-757 46 c26 -18 49 -33 52
-33 4 0 16 18 27 40 11 22 24 40 28 40 4 0 23 -28 41 -61 l34 -62 -7 -105 c-4
-58 -9 -109 -12 -114 -3 -4 -31 -8 -63 -8 -79 0 -85 8 -76 114 l7 85 -59 73
c-93 114 -91 115 28 31z m509 -78 l0 -116 -112 3 -113 3 -3 99 c-1 55 0 106 2
113 4 10 33 13 116 13 l110 0 0 -115z m3675 0 l0 -110 -110 0 -110 0 -3 113
-3 113 113 -3 113 -3 0 -110z m-2442 -113 c3 -4 3 -20 0 -35 l-5 -27 -256 2
c-246 3 -255 4 -258 23 -8 45 -8 45 260 45 140 0 257 -3 259 -8z m-1393 -133
l0 -109 -28 0 c-21 0 -30 7 -39 30 -21 55 -87 80 -145 55 -33 -14 -19 19 15
35 28 13 32 21 35 57 l3 42 47 3 c26 2 62 1 80 -1 l32 -3 0 -109z m220 111 c0
-4 -23 -10 -51 -14 -45 -6 -50 -9 -47 -29 3 -23 6 -24 76 -26 l42 -1 0 -75 0
-75 -30 0 c-27 0 -30 2 -20 19 42 79 -65 154 -119 85 -23 -30 -26 -55 -10 -85
9 -19 8 -20 -18 -17 l-28 3 0 105 0 105 70 5 c116 8 135 8 135 0z m190 -26 c0
-20 -5 -24 -30 -24 -25 0 -30 4 -30 23 0 31 5 35 35 29 18 -3 25 -11 25 -28z
m1067 -10 c3 -7 2 -22 -2 -31 -6 -16 -8 -16 -16 4 -4 12 -17 28 -29 35 -11 7
-20 19 -20 26 0 17 59 -13 67 -34z m1753 -75 l0 -109 -60 0 c-46 0 -60 3 -60
15 0 8 -25 30 -55 50 l-55 35 0 60 0 59 93 3 c148 5 137 14 137 -113z m710 0
l0 -110 -112 3 -113 3 -3 107 -3 107 68 3 c37 2 89 1 116 0 l47 -4 0 -109z
m-3610 86 l0 -25 -102 0 c-56 0 -98 3 -94 8 7 7 145 39 179 41 12 1 17 -6 17
-24z m200 9 c47 -9 89 -21 95 -25 5 -5 -38 -9 -98 -9 l-107 0 0 25 c0 30 1 30
110 9z m330 11 c0 -3 -12 -16 -27 -29 -26 -23 -27 -27 -25 -105 3 -68 0 -81
-12 -81 -13 0 -16 15 -16 84 0 69 4 88 21 110 18 22 59 37 59 21z m13 -49 c13
-11 17 -29 17 -90 l0 -76 -35 0 -35 0 0 78 c0 94 14 117 53 88z m571 -18 c7
-20 5 -37 -9 -68 -15 -34 -16 -45 -7 -61 11 -17 9 -19 -18 -19 l-30 0 0 78 c0
79 10 105 40 100 8 -2 19 -15 24 -30z m-514 -68 c0 -64 -3 -80 -15 -80 -12 0
-15 16 -15 80 0 64 3 80 15 80 12 0 15 -16 15 -80z m391 70 c1 -5 2 -17 2 -25
0 -8 -1 -40 -2 -70 l-1 -55 -190 0 -190 0 0 73 c0 41 3 77 7 80 11 11 373 8
374 -3z m49 -70 c0 -64 -3 -80 -15 -80 -12 0 -15 16 -15 80 0 64 3 80 15 80
12 0 15 -16 15 -80z m-1212 24 c41 -29 18 -104 -33 -104 -55 0 -74 82 -25 107
32 16 31 16 58 -3z m247 -45 c0 -51 -1 -54 -25 -54 -22 0 -25 5 -28 44 -4 57
2 72 30 67 21 -3 23 -8 23 -57z m280 17 c17 -47 -24 -87 -72 -70 -24 8 -28 15
-28 49 0 32 5 42 24 51 32 16 64 3 76 -30z m1966 -2 c8 -10 25 -14 48 -12 34
3 36 1 36 -27 l0 -30 -107 -3 c-127 -3 -136 6 -55 55 61 38 61 38 78 17z m395
-21 c31 -20 51 -40 46 -45 -5 -5 -56 -7 -113 -6 l-104 3 0 30 c0 28 2 30 35
27 20 -2 44 3 55 12 11 9 21 16 23 16 1 0 27 -16 58 -37z m-3324 8 c24 -12 33
-12 68 4 43 19 95 13 95 -12 0 -6 4 -15 9 -20 5 -5 6 -3 2 5 -4 6 -3 12 2 12
10 0 22 -23 22 -41 0 -5 -54 -9 -120 -9 l-121 0 3 40 c1 22 4 39 7 37 4 -1 18
-9 33 -16z"/>
<path d="M5590 2379 c0 -5 -4 -8 -9 -4 -5 3 -12 1 -16 -5 -3 -5 -2 -10 3 -10
6 0 8 -9 5 -19 -6 -24 11 -59 21 -42 4 6 2 11 -3 11 -16 0 -13 32 5 58 8 12
10 22 5 22 -6 0 -11 -5 -11 -11z"/>
<path d="M5680 2370 c0 -5 5 -10 11 -10 5 0 7 -5 3 -12 -4 -7 -3 -8 5 -4 9 6
9 11 0 22 -14 17 -19 18 -19 4z"/>
<path d="M5720 2310 c0 -8 5 -22 10 -30 9 -13 10 -13 10 0 0 8 -5 22 -10 30
-9 13 -10 13 -10 0z"/>
<path d="M5702 2290 c0 -14 2 -19 5 -12 2 6 2 18 0 25 -3 6 -5 1 -5 -13z"/>
<path d="M5585 2270 c3 -5 8 -10 11 -10 2 0 4 5 4 10 0 6 -5 10 -11 10 -5 0
-7 -4 -4 -10z"/>
<path d="M5611 2223 c-1 -12 4 -25 10 -29 6 -3 8 -15 6 -26 -3 -11 -3 -17 0
-14 4 3 12 1 18 -4 9 -8 14 -1 18 27 8 47 -1 58 -9 13 l-7 -33 -18 44 c-12 30
-18 37 -18 22z"/>
<path d="M5680 2215 c0 -8 2 -15 4 -15 2 0 6 7 10 15 3 8 1 15 -4 15 -6 0 -10
-7 -10 -15z"/>
<path d="M5668 2136 c-24 -18 -23 -21 10 -23 15 0 19 1 9 4 -14 4 -16 8 -6 19
14 17 9 17 -13 0z"/>
<path d="M5717 2091 c3 -12 9 -21 14 -21 14 0 11 16 -5 29 -12 10 -13 8 -9 -8z"/>
<path d="M3220 1920 c0 -6 33 -10 85 -10 l85 0 0 -40 c0 -22 5 -40 11 -40 6 0
9 19 7 48 l-3 47 -92 3 c-60 2 -93 -1 -93 -8z"/>
<path d="M3024 1889 c-10 -17 13 -36 27 -22 12 12 4 33 -11 33 -5 0 -12 -5
-16 -11z"/>
<path d="M3090 1880 c0 -15 5 -20 18 -18 9 2 17 10 17 18 0 8 -8 16 -17 18
-13 2 -18 -3 -18 -18z"/>
<path d="M3154 1889 c-10 -17 13 -36 27 -22 12 12 4 33 -11 33 -5 0 -12 -5
-16 -11z"/>
<path d="M3255 1890 c-4 -6 -11 -8 -16 -5 -5 4 -9 -2 -9 -11 0 -16 1 -16 20 1
11 10 20 20 20 22 0 7 -9 3 -15 -7z"/>
<path d="M3315 1870 c-16 -16 -25 -30 -19 -29 8 0 60 59 52 59 -3 0 -17 -13
-33 -30z"/>
<path d="M2490 1512 c0 -4 18 -18 40 -32 l39 -24 -25 -43 c-14 -24 -21 -43
-17 -43 5 0 20 20 35 44 l26 44 -44 31 c-47 33 -54 36 -54 23z"/>
<path d="M3213 1738 c-51 -11 -56 -33 -10 -44 l32 -8 -29 -5 c-42 -8 -44 -28
-4 -39 l33 -8 -33 -7 c-37 -8 -39 -30 -4 -35 12 -2 22 -7 22 -12 0 -5 -10 -10
-22 -12 -35 -5 -33 -27 4 -35 l33 -7 -30 -6 c-17 -3 -30 -11 -30 -20 0 -9 13
-17 30 -21 l30 -5 -32 -8 c-37 -8 -46 -29 -10 -22 69 14 78 18 74 29 -2 7 -16
13 -30 15 -33 4 -26 22 9 22 37 0 30 29 -8 37 l-33 7 30 6 c17 3 30 11 30 20
0 9 -13 17 -30 20 l-30 6 33 7 c38 8 45 37 8 37 -35 0 -42 18 -9 22 40 5 41
27 1 35 l-33 7 29 6 c16 3 31 11 34 18 4 14 3 14 -55 0z"/>
<path d="M5905 1539 c-4 -6 -5 -12 -2 -15 2 -3 7 2 10 11 7 17 1 20 -8 4z"/>
<path d="M1997 2394 c-9 -10 2 -24 19 -24 8 0 14 7 14 15 0 15 -21 21 -33 9z"/>
<path d="M3532 2350 c0 -14 2 -19 5 -12 2 6 2 18 0 25 -3 6 -5 1 -5 -13z"/>
<path d="M2001 2336 c-9 -10 -9 -16 -1 -21 17 -10 37 12 24 25 -8 8 -15 6 -23
-4z"/>
<path d="M4795 2288 c-68 -65 -52 -124 32 -119 33 2 93 66 93 99 0 62 -69 72
-125 20z m105 2 c23 -42 -48 -116 -103 -108 -31 4 -34 47 -6 82 37 47 91 60
109 26z"/>
<path d="M3521 2294 c0 -11 3 -14 6 -6 3 7 2 16 -1 19 -3 4 -6 -2 -5 -13z"/>
<path d="M1997 2275 c-8 -18 11 -31 25 -17 11 11 3 32 -12 32 -4 0 -10 -7 -13
-15z"/>
<path d="M4587 2254 c-9 -10 2 -24 19 -24 8 0 14 7 14 15 0 15 -21 21 -33 9z"/>
<path d="M4650 2245 c0 -10 7 -15 18 -13 21 4 19 22 -2 26 -10 2 -16 -3 -16
-13z"/>
<path d="M4715 2251 c-7 -12 12 -24 25 -16 11 7 4 25 -10 25 -5 0 -11 -4 -15
-9z"/>
<path d="M2063 2224 c-7 -3 -13 -14 -13 -25 0 -11 -13 -25 -31 -35 -27 -13
-38 -14 -76 -3 -59 16 -111 0 -159 -49 -19 -20 -53 -44 -73 -52 -53 -21 -151
-131 -151 -168 0 -17 -9 -37 -21 -48 -36 -32 -40 -50 -20 -76 19 -24 19 -24
-6 -56 -20 -26 -28 -30 -39 -22 -10 9 -19 6 -39 -14 -14 -14 -25 -29 -25 -34
0 -6 29 -37 64 -70 l64 -60 -28 -27 -29 -28 -48 46 -48 46 24 25 c14 14 22 29
18 32 -6 6 -56 -45 -57 -57 0 -10 108 -109 119 -109 6 0 20 13 32 30 16 22 28
28 44 24 28 -7 60 28 52 57 -4 15 3 31 23 52 27 30 30 30 48 14 10 -9 25 -17
33 -17 14 0 260 261 308 326 13 17 24 49 26 73 1 23 6 45 10 49 4 4 27 7 52 7
70 0 76 19 33 103 -34 65 -53 80 -87 66z m69 -64 c33 -66 35 -90 8 -90 -28 0
-87 115 -69 136 19 23 32 13 61 -46z m-57 -30 c8 -16 15 -34 15 -39 0 -12
-152 -91 -174 -91 -22 0 -46 39 -37 62 7 19 141 96 168 97 7 1 19 -12 28 -29z
m-120 11 c3 -5 -5 -13 -17 -17 -43 -13 -78 -44 -78 -70 0 -68 46 -87 120 -49
27 14 52 25 55 25 16 0 1 -62 -22 -97 -38 -54 -286 -324 -295 -321 -17 6 -198
174 -198 184 0 6 11 21 25 34 14 13 25 18 25 12 0 -27 27 -8 99 69 105 114
115 127 103 142 -11 13 15 50 58 80 26 18 115 24 125 8z m-201 -100 c3 -5 -29
-46 -71 -92 -41 -46 -80 -88 -85 -94 -10 -12 -28 11 -28 37 0 28 128 158 156
158 12 0 25 -4 28 -9z m-144 -356 l44 -45 -25 -27 c-13 -16 -25 -30 -27 -32
-1 -3 -25 17 -52 44 l-50 49 27 28 c15 15 29 28 33 28 3 0 26 -20 50 -45z
m-69 -74 c65 -60 72 -70 60 -85 -7 -9 -18 -16 -23 -16 -15 0 -148 120 -148
134 0 13 20 36 30 36 4 0 40 -31 81 -69z"/>
<path d="M2735 2206 c-168 -53 -221 -153 -148 -278 15 -25 26 -33 49 -34 16 0
39 -6 51 -12 40 -22 108 -15 143 15 21 17 30 32 27 45 -3 10 -2 18 1 18 4 0
12 17 19 37 11 35 9 39 -25 80 -20 24 -40 43 -45 43 -4 0 -5 16 -1 35 4 22 2
41 -6 50 -14 17 -13 17 -65 1z m55 -37 c0 -11 -14 -34 -30 -51 -32 -31 -38
-32 -107 -10 -27 9 -31 8 -26 -6 4 -9 2 -13 -4 -9 -19 12 -34 -21 -32 -70 3
-50 24 -96 47 -101 8 -1 11 2 7 8 -3 5 1 10 9 10 8 0 18 5 22 12 4 7 3 8 -4 4
-7 -4 -12 -1 -12 8 0 9 -5 16 -11 16 -5 0 -7 -5 -3 -11 12 -19 -19 -29 -33
-11 -16 21 -17 35 -1 26 7 -5 8 -3 3 7 -13 20 -15 90 -3 83 5 -3 15 2 22 11
18 25 60 11 46 -15 -14 -25 -13 -76 2 -100 10 -15 9 -22 -6 -38 -31 -35 -52
-33 -74 7 -58 108 -21 192 107 237 55 20 81 18 81 -7z m44 -98 c30 -31 36 -43
30 -65 -4 -19 -13 -26 -30 -26 -27 0 -32 -17 -9 -26 25 -10 17 -33 -17 -54
-38 -23 -66 -25 -103 -8 -24 11 -24 12 -10 35 13 20 14 29 4 57 -18 49 -5 78
44 102 23 12 44 22 47 23 3 0 23 -16 44 -38z"/>
<path d="M2751 2163 c-6 -10 -11 -12 -11 -5 0 6 -5 12 -11 12 -6 0 -9 -6 -6
-14 3 -8 1 -17 -6 -20 -7 -3 -2 -3 11 0 14 3 22 1 22 -8 0 -10 3 -9 9 2 6 8 7
18 4 23 -3 5 1 13 8 18 9 6 10 9 2 9 -7 0 -17 -8 -22 -17z"/>
<path d="M2670 2141 c0 -6 11 -18 26 -27 19 -13 28 -14 37 -5 9 10 9 11 -3 6
-9 -3 -26 4 -38 15 -12 11 -22 16 -22 11z"/>
<path d="M2643 2070 c-1 -11 1 -22 5 -24 4 -2 8 7 8 20 1 13 -1 24 -5 24 -4 0
-7 -9 -8 -20z"/>
<path d="M2621 2024 c0 -11 3 -14 6 -6 3 7 2 16 -1 19 -3 4 -6 -2 -5 -13z"/>
<path d="M2640 2025 c0 -5 5 -17 10 -25 5 -8 10 -10 10 -5 0 6 -5 17 -10 25
-5 8 -10 11 -10 5z"/>
<path d="M4587 2194 c-9 -10 2 -24 19 -24 8 0 14 7 14 15 0 15 -21 21 -33 9z"/>
<path d="M4587 2134 c-9 -10 2 -24 19 -24 8 0 14 7 14 15 0 15 -21 21 -33 9z"/>
<path d="M3385 2120 c-3 -5 -1 -10 4 -10 6 0 11 5 11 10 0 6 -2 10 -4 10 -3 0
-8 -4 -11 -10z"/>
<path d="M4591 2076 c-9 -10 -9 -16 -1 -21 17 -10 37 12 24 25 -8 8 -15 6 -23
-4z"/>
<path d="M4593 2022 c-8 -5 -9 -13 -3 -22 7 -12 12 -12 22 -2 14 14 -1 35 -19
24z"/>
<path d="M4587 1955 c-8 -18 11 -31 25 -17 11 11 3 32 -12 32 -4 0 -10 -7 -13
-15z"/>
<path d="M4592 1876 c1 -10 8 -17 13 -17 15 1 12 24 -3 29 -9 3 -13 -2 -10
-12z"/>
<path d="M4586 1821 c-3 -5 1 -14 8 -20 16 -13 32 2 21 19 -8 12 -22 13 -29 1z"/>
<path d="M1960 1815 c0 -4 8 -19 19 -33 135 -193 116 -439 -48 -602 -31 -31
-82 -69 -114 -85 l-58 -28 -27 26 c-15 15 -43 32 -62 39 l-35 12 45 8 c133 23
252 141 284 281 12 52 -9 27 -27 -33 -25 -85 -85 -156 -172 -200 -63 -32 -74
-35 -159 -35 -75 0 -99 5 -138 24 -41 20 -48 28 -48 52 0 28 2 29 48 29 60 0
92 21 92 61 0 27 -2 29 -40 29 -36 0 -40 3 -40 25 l0 25 -155 0 -155 0 0 -25
c0 -22 -4 -25 -40 -25 -36 0 -40 -2 -40 -25 0 -43 33 -65 95 -65 l55 0 0 -39
c0 -35 6 -44 47 -80 26 -22 77 -55 113 -73 36 -17 66 -33 68 -33 1 -1 -1 -16
-4 -33 l-6 -32 -87 0 c-89 -1 -108 -8 -129 -47 -18 -33 -14 -53 11 -63 17 -7
7 -9 -41 -9 -59 -1 -62 0 -52 18 5 11 10 85 10 169 0 142 -1 149 -23 170 -15
14 -36 22 -60 22 -36 0 -37 1 -38 38 -2 152 1 217 10 220 6 2 11 15 11 28 0
24 -1 24 -100 24 -81 0 -102 -3 -107 -15 -3 -9 2 -24 11 -34 14 -16 17 -38 15
-127 -1 -60 -4 -115 -6 -121 -3 -8 -24 -13 -54 -13 l-49 0 0 122 c0 98 3 125
16 139 9 10 14 25 10 34 -5 13 -22 15 -103 13 -85 -3 -98 -5 -101 -21 -2 -10
4 -24 14 -31 16 -12 16 -24 8 -132 l-9 -119 -35 -3 c-54 -5 -80 -36 -80 -94 0
-48 0 -48 -34 -48 -52 0 -58 -15 -54 -134 l3 -106 -87 0 c-52 0 -88 -4 -88
-10 0 -7 340 -10 1000 -10 660 0 1000 3 1000 10 0 6 -20 10 -45 10 -37 0 -45
3 -45 18 0 11 -9 27 -21 38 -12 10 -28 31 -35 47 -9 17 -26 30 -44 33 -35 7
-57 30 -62 64 -5 36 -29 35 -73 -4 -36 -31 -39 -37 -27 -55 12 -20 10 -21 -48
-21 -50 0 -60 3 -60 18 0 9 -3 26 -6 37 -4 17 5 25 51 48 242 118 331 433 191
672 -24 40 -56 75 -56 60z m-1170 -290 c0 -12 -16 -15 -84 -15 -78 0 -105 7
-89 24 3 3 44 6 90 6 67 0 83 -3 83 -15z m268 -2 c3 -10 -19 -13 -87 -13 -75
0 -91 3 -91 15 0 13 14 15 87 13 58 -2 88 -7 91 -15z m-293 -153 l0 -125 -25
-2 c-14 -1 -41 0 -61 3 l-36 5 -1 116 c-1 63 1 119 4 124 3 6 31 9 62 7 l57
-3 0 -125z m265 -1 l0 -131 -55 4 c-30 3 -58 8 -62 12 -10 9 -17 189 -9 221 6
23 11 25 66 25 l60 0 0 -131z m401 21 c19 0 29 -5 29 -15 0 -13 -22 -15 -135
-15 -111 0 -135 3 -135 15 0 15 87 25 169 19 24 -2 57 -4 72 -4z m107 -72 l-3
-23 -210 0 -210 0 -3 23 -3 22 216 0 216 0 -3 -22z m-138 -80 c0 -71 -87 -106
-129 -52 -12 15 -21 40 -21 55 l0 29 75 0 75 0 0 -32z m-272 -24 c21 -14 22
-22 22 -166 0 -127 -3 -154 -17 -170 -15 -16 -36 -18 -240 -18 -142 0 -223 4
-223 10 0 6 81 10 223 10 160 0 226 3 235 12 8 8 12 56 12 149 0 112 -3 141
-16 153 -23 24 -555 24 -578 0 -9 -8 -16 -20 -16 -25 0 -15 17 -10 24 6 3 9
18 15 36 15 29 0 30 -2 30 -45 l0 -45 -50 0 -50 0 0 49 c0 81 -2 80 315 81
229 0 274 -2 293 -16z m430 -64 c42 0 41 -13 -3 -29 -19 -6 -43 -23 -54 -37
l-20 -26 -56 26 c-30 14 -65 32 -76 40 -20 14 -20 15 14 31 20 9 38 23 41 30
4 10 17 8 63 -11 32 -13 73 -24 91 -24z m-788 -36 c0 -84 -10 -111 -46 -124
-39 -15 -51 -4 -50 47 0 29 -5 49 -15 57 -8 6 -16 30 -18 54 l-3 42 66 0 66 0
0 -76z m110 2 c0 -41 4 -86 10 -101 11 -30 60 -54 95 -47 46 8 60 37 64 134
l3 89 32 -3 31 -3 3 -142 c3 -141 2 -143 -20 -148 -13 -3 -113 -4 -223 -2
l-200 2 -3 39 c-3 32 -1 38 12 33 21 -8 66 9 82 31 9 11 13 49 14 105 l0 87
50 0 50 0 0 -74z m150 -11 c0 -72 -3 -88 -20 -105 -11 -11 -29 -20 -40 -20
-11 0 -29 9 -40 20 -17 17 -20 33 -20 105 l0 85 60 0 60 0 0 -85z m686 -16
c25 -23 54 -76 54 -99 0 -6 -52 -10 -145 -10 -140 0 -145 1 -145 20 0 34 29
79 63 101 46 29 136 23 173 -12z m-1067 -13 c8 -9 11 -48 9 -112 l-3 -99 -112
-3 -113 -3 0 109 c0 60 2 111 5 114 3 3 50 6 104 6 74 2 101 -1 110 -12z
m1333 -46 c12 -30 23 -41 50 -47 23 -6 38 -18 48 -40 8 -18 23 -34 33 -36 9
-3 17 -15 17 -26 0 -18 -6 -21 -41 -21 -45 0 -80 26 -156 118 l-36 44 29 24
c16 13 31 23 34 24 3 0 12 -18 22 -40z m-24 -103 l37 -37 -373 0 c-355 0 -372
1 -372 18 0 19 24 46 48 53 6 2 150 4 318 3 l305 0 37 -37z m-580 -64 c-15 -2
-42 -2 -60 0 -18 2 -6 4 27 4 33 0 48 -2 33 -4z m355 0 c-56 -2 -151 -2 -210
0 -59 1 -13 3 102 3 116 0 164 -2 108 -3z m200 0 c-18 -2 -48 -2 -65 0 -18 2
-4 4 32 4 36 0 50 -2 33 -4z m80 0 c-7 -2 -21 -2 -30 0 -10 3 -4 5 12 5 17 0
24 -2 18 -5z"/>
<path d="M4586 1761 c-7 -11 18 -33 27 -24 4 3 7 12 7 20 0 15 -26 18 -34 4z"/>
<path d="M4587 1704 c-9 -10 2 -24 19 -24 8 0 14 7 14 15 0 15 -21 21 -33 9z"/>
<path d="M4650 1695 c0 -8 7 -15 15 -15 8 0 15 7 15 15 0 8 -7 15 -15 15 -8 0
-15 -7 -15 -15z"/>
<path d="M4710 1695 c0 -10 7 -15 18 -13 21 4 19 22 -2 26 -10 2 -16 -3 -16
-13z"/>
<path d="M4777 1704 c-9 -10 2 -24 19 -24 8 0 14 7 14 15 0 15 -21 21 -33 9z"/>
<path d="M4840 1695 c0 -8 7 -15 15 -15 8 0 15 7 15 15 0 8 -7 15 -15 15 -8 0
-15 -7 -15 -15z"/>
<path d="M1894 1673 c-10 -15 -13 -16 -28 -4 -21 18 -46 -1 -39 -29 4 -15 0
-20 -16 -20 -25 0 -29 -31 -6 -50 12 -10 13 -16 4 -26 -15 -18 6 -45 27 -37
10 4 17 -2 21 -16 5 -21 43 -31 43 -11 0 6 15 9 33 8 28 -3 32 0 35 25 2 19 9
27 23 27 24 0 25 28 2 46 -14 10 -15 15 -6 25 17 17 5 39 -22 39 -14 0 -25 7
-28 20 -6 25 -28 26 -43 3z m36 -63 c25 -25 25 -32 2 -60 -14 -18 -25 -21 -45
-16 -38 9 -48 53 -17 78 28 23 35 23 60 -2z"/>
<path d="M3993 1599 c-29 -22 -53 -44 -53 -49 0 -15 6 -12 42 21 18 17 45 37
61 45 29 16 34 24 15 24 -7 0 -37 -18 -65 -41z"/>
<path d="M1713 1521 c-5 -22 -37 -29 -48 -11 -13 20 -45 -13 -42 -45 2 -24 -2
-31 -19 -33 -34 -5 -42 -62 -9 -62 20 0 24 -23 7 -43 -14 -16 -14 -20 6 -39
16 -17 25 -19 33 -11 16 16 39 5 39 -17 0 -31 40 -36 61 -9 16 21 21 23 40 11
18 -11 24 -11 40 4 13 12 16 21 9 34 -10 18 4 40 26 40 15 0 28 35 19 50 -3 5
-13 10 -21 10 -16 0 -19 36 -4 45 20 12 -9 46 -37 43 -17 -2 -29 4 -37 17 -6
11 -11 21 -11 21 0 1 -10 5 -23 9 -19 5 -25 2 -29 -14z m57 -91 c27 -27 26
-75 -2 -94 -31 -22 -64 -20 -88 6 -26 28 -26 62 2 88 28 25 62 26 88 0z"/>
<path d="M4850 1436 c0 -18 7 -39 16 -46 8 -8 20 -22 25 -32 8 -15 5 -20 -16
-28 -14 -5 -25 -16 -25 -25 0 -21 -24 -19 -45 5 -13 15 -29 20 -59 18 l-41 -1
36 -4 c22 -3 46 -14 59 -29 13 -13 29 -24 37 -24 7 0 13 -4 13 -10 0 -5 -33
-11 -72 -13 l-73 -3 73 -2 c93 -3 95 -22 2 -22 -40 0 -70 -4 -70 -10 0 -6 30
-10 70 -10 40 0 70 -4 70 -10 0 -5 -6 -10 -13 -10 -8 0 -22 -9 -32 -20 -11
-12 -31 -20 -51 -20 -18 0 -36 -4 -39 -10 -4 -6 9 -10 31 -10 26 0 46 8 63 24
l26 23 32 -32 31 -33 -24 -23 c-17 -16 -24 -33 -24 -61 0 -21 5 -38 10 -38 6
0 10 17 10 38 0 26 7 45 20 57 11 10 20 24 20 32 0 7 5 13 10 13 6 0 10 -30
10 -71 0 -44 4 -68 10 -64 6 3 10 35 10 71 0 88 18 81 23 -8 l3 -73 2 73 c1
40 6 72 12 72 6 0 10 -6 10 -13 0 -8 11 -24 24 -37 15 -13 26 -37 29 -59 l4
-36 1 41 c2 30 -3 46 -18 59 -24 21 -26 45 -5 45 9 0 20 11 25 25 5 14 13 25
18 25 5 0 19 -11 32 -25 24 -25 90 -36 90 -15 0 6 -15 10 -33 10 -21 0 -41 8
-52 20 -10 11 -26 20 -37 20 -10 0 -18 5 -18 10 0 6 30 10 70 10 40 0 70 4 70
10 0 6 -30 10 -70 10 -92 0 -90 18 3 23 l72 3 -72 2 c-41 1 -73 6 -73 12 0 6
6 10 13 10 8 0 24 11 37 24 13 15 37 26 59 29 l36 4 -41 1 c-30 2 -46 -3 -59
-18 -22 -24 -45 -26 -45 -4 0 9 -9 18 -20 21 -11 3 -20 11 -20 18 0 6 9 20 20
30 14 13 20 30 19 59 l-1 41 -8 -38 c-4 -20 -17 -48 -28 -60 -12 -13 -22 -29
-22 -35 0 -7 -4 -12 -10 -12 -5 0 -11 33 -13 73 l-3 72 -2 -72 c-3 -94 -22
-96 -22 -3 0 40 -4 70 -10 70 -6 0 -10 -30 -10 -70 0 -40 -4 -70 -10 -70 -5 0
-10 8 -10 18 0 11 -9 27 -20 37 -12 11 -20 31 -20 52 0 18 -4 33 -10 33 -5 0
-10 -15 -10 -34z m190 -205 l0 -91 -85 0 -85 0 0 84 c0 96 -7 89 102 94 l68 3
0 -90z"/>
</g>
</svg>
