<svg width="77" height="46" viewBox="0 0 77 46" fill="none" xmlns="http://www.w3.org/2000/svg">
<path d="M19.3821 37L18.3921 34.375H18.7321L19.6321 36.81H19.4771L20.4021 34.375H20.7071L21.6221 36.81H21.4671L22.3821 34.375H22.7071L21.7121 37H21.3771L20.4971 34.71H20.6021L19.7171 37H19.3821ZM23.2416 37V34.375H23.5966V37H23.2416ZM23.4216 33.795C23.3482 33.795 23.2866 33.77 23.2366 33.72C23.1866 33.67 23.1616 33.61 23.1616 33.54C23.1616 33.47 23.1866 33.4117 23.2366 33.365C23.2866 33.315 23.3482 33.29 23.4216 33.29C23.4949 33.29 23.5566 33.3133 23.6066 33.36C23.6566 33.4067 23.6816 33.465 23.6816 33.535C23.6816 33.6083 23.6566 33.67 23.6066 33.72C23.5599 33.77 23.4982 33.795 23.4216 33.795ZM25.2894 37.025C25.0727 37.025 24.8677 36.995 24.6744 36.935C24.481 36.8717 24.3294 36.7933 24.2194 36.7L24.3794 36.42C24.486 36.5 24.6227 36.57 24.7894 36.63C24.956 36.6867 25.131 36.715 25.3144 36.715C25.5644 36.715 25.7444 36.6767 25.8544 36.6C25.9644 36.52 26.0194 36.415 26.0194 36.285C26.0194 36.1883 25.9877 36.1133 25.9244 36.06C25.8644 36.0033 25.7844 35.9617 25.6844 35.935C25.5844 35.905 25.4727 35.88 25.3494 35.86C25.226 35.84 25.1027 35.8167 24.9794 35.79C24.8594 35.7633 24.7494 35.725 24.6494 35.675C24.5494 35.6217 24.4677 35.55 24.4044 35.46C24.3444 35.37 24.3144 35.25 24.3144 35.1C24.3144 34.9567 24.3544 34.8283 24.4344 34.715C24.5144 34.6017 24.631 34.5133 24.7844 34.45C24.941 34.3833 25.131 34.35 25.3544 34.35C25.5244 34.35 25.6944 34.3733 25.8644 34.42C26.0344 34.4633 26.1744 34.5217 26.2844 34.595L26.1294 34.88C26.0127 34.8 25.8877 34.7433 25.7544 34.71C25.621 34.6733 25.4877 34.655 25.3544 34.655C25.1177 34.655 24.9427 34.6967 24.8294 34.78C24.7194 34.86 24.6644 34.9633 24.6644 35.09C24.6644 35.19 24.6944 35.2683 24.7544 35.325C24.8177 35.3817 24.8994 35.4267 24.9994 35.46C25.1027 35.49 25.2144 35.515 25.3344 35.535C25.4577 35.555 25.5794 35.58 25.6994 35.61C25.8227 35.6367 25.9344 35.675 26.0344 35.725C26.1377 35.7717 26.2194 35.84 26.2794 35.93C26.3427 36.0167 26.3744 36.1317 26.3744 36.275C26.3744 36.4283 26.331 36.5617 26.2444 36.675C26.161 36.785 26.0377 36.8717 25.8744 36.935C25.7144 36.995 25.5194 37.025 25.2894 37.025ZM28.0708 37.025C27.8208 37.025 27.5958 36.9683 27.3958 36.855C27.1991 36.7417 27.0441 36.585 26.9308 36.385C26.8174 36.1817 26.7608 35.9483 26.7608 35.685C26.7608 35.4183 26.8174 35.185 26.9308 34.985C27.0441 34.785 27.1991 34.63 27.3958 34.52C27.5958 34.4067 27.8208 34.35 28.0708 34.35C28.3008 34.35 28.5058 34.4017 28.6858 34.505C28.8691 34.6083 29.0141 34.76 29.1208 34.96C29.2308 35.1567 29.2858 35.3983 29.2858 35.685C29.2858 35.9683 29.2324 36.21 29.1258 36.41C29.0191 36.61 28.8741 36.7633 28.6908 36.87C28.5108 36.9733 28.3041 37.025 28.0708 37.025ZM28.0958 36.71C28.2824 36.71 28.4491 36.6683 28.5958 36.585C28.7458 36.4983 28.8624 36.3783 28.9458 36.225C29.0324 36.0683 29.0758 35.8883 29.0758 35.685C29.0758 35.4783 29.0324 35.2983 28.9458 35.145C28.8624 34.9917 28.7458 34.8733 28.5958 34.79C28.4491 34.7033 28.2824 34.66 28.0958 34.66C27.9124 34.66 27.7474 34.7033 27.6008 34.79C27.4541 34.8733 27.3374 34.9917 27.2508 35.145C27.1641 35.2983 27.1208 35.4783 27.1208 35.685C27.1208 35.8883 27.1641 36.0683 27.2508 36.225C27.3374 36.3783 27.4541 36.4983 27.6008 36.585C27.7474 36.6683 27.9124 36.71 28.0958 36.71ZM29.0858 37V36.21L29.1208 35.68L29.0708 35.15V33.29H29.4258V37H29.0858ZM31.4844 37.025C31.2311 37.025 31.0028 36.9683 30.7994 36.855C30.5994 36.7383 30.4411 36.58 30.3244 36.38C30.2078 36.1767 30.1494 35.945 30.1494 35.685C30.1494 35.4217 30.2078 35.19 30.3244 34.99C30.4411 34.79 30.5994 34.6333 30.7994 34.52C30.9994 34.4067 31.2278 34.35 31.4844 34.35C31.7444 34.35 31.9744 34.4067 32.1744 34.52C32.3778 34.6333 32.5361 34.79 32.6494 34.99C32.7661 35.19 32.8244 35.4217 32.8244 35.685C32.8244 35.945 32.7661 36.1767 32.6494 36.38C32.5361 36.58 32.3778 36.7383 32.1744 36.855C31.9711 36.9683 31.7411 37.025 31.4844 37.025ZM31.4844 36.71C31.6744 36.71 31.8428 36.6683 31.9894 36.585C32.1361 36.4983 32.2511 36.3783 32.3344 36.225C32.4211 36.0683 32.4644 35.8883 32.4644 35.685C32.4644 35.4783 32.4211 35.2983 32.3344 35.145C32.2511 34.9917 32.1361 34.8733 31.9894 34.79C31.8428 34.7033 31.6761 34.66 31.4894 34.66C31.3028 34.66 31.1361 34.7033 30.9894 34.79C30.8428 34.8733 30.7261 34.9917 30.6394 35.145C30.5528 35.2983 30.5094 35.4783 30.5094 35.685C30.5094 35.8883 30.5528 36.0683 30.6394 36.225C30.7261 36.3783 30.8428 36.4983 30.9894 36.585C31.1361 36.6683 31.3011 36.71 31.4844 36.71ZM36.8292 34.35C37.0425 34.35 37.2275 34.3917 37.3842 34.475C37.5442 34.555 37.6675 34.6783 37.7542 34.845C37.8442 35.0117 37.8892 35.2217 37.8892 35.475V37H37.5342V35.51C37.5342 35.2333 37.4675 35.025 37.3342 34.885C37.2042 34.7417 37.0192 34.67 36.7792 34.67C36.5992 34.67 36.4425 34.7083 36.3092 34.785C36.1792 34.8583 36.0775 34.9667 36.0042 35.11C35.9342 35.25 35.8992 35.42 35.8992 35.62V37H35.5442V35.51C35.5442 35.2333 35.4775 35.025 35.3442 34.885C35.2109 34.7417 35.0242 34.67 34.7842 34.67C34.6075 34.67 34.4525 34.7083 34.3192 34.785C34.1859 34.8583 34.0825 34.9667 34.0092 35.11C33.9392 35.25 33.9042 35.42 33.9042 35.62V37H33.5492V34.375H33.8892V35.085L33.8342 34.96C33.9142 34.77 34.0425 34.6217 34.2192 34.515C34.3992 34.405 34.6109 34.35 34.8542 34.35C35.1109 34.35 35.3292 34.415 35.5092 34.545C35.6892 34.6717 35.8059 34.8633 35.8592 35.12L35.7192 35.065C35.7959 34.8517 35.9309 34.68 36.1242 34.55C36.3209 34.4167 36.5559 34.35 36.8292 34.35ZM40.2205 37V34.045C40.2205 33.8117 40.2889 33.6233 40.4255 33.48C40.5622 33.3367 40.7589 33.265 41.0155 33.265C41.1155 33.265 41.2122 33.2783 41.3055 33.305C41.3989 33.3317 41.4772 33.3733 41.5405 33.43L41.4205 33.695C41.3705 33.6517 41.3122 33.62 41.2455 33.6C41.1789 33.5767 41.1072 33.565 41.0305 33.565C40.8805 33.565 40.7655 33.6067 40.6855 33.69C40.6055 33.7733 40.5655 33.8967 40.5655 34.06V34.46L40.5755 34.625V37H40.2205ZM39.7505 34.67V34.375H41.3755V34.67H39.7505ZM42.8809 37.025C42.6276 37.025 42.3993 36.9683 42.1959 36.855C41.9959 36.7383 41.8376 36.58 41.7209 36.38C41.6043 36.1767 41.5459 35.945 41.5459 35.685C41.5459 35.4217 41.6043 35.19 41.7209 34.99C41.8376 34.79 41.9959 34.6333 42.1959 34.52C42.3959 34.4067 42.6243 34.35 42.8809 34.35C43.1409 34.35 43.3709 34.4067 43.5709 34.52C43.7743 34.6333 43.9326 34.79 44.0459 34.99C44.1626 35.19 44.2209 35.4217 44.2209 35.685C44.2209 35.945 44.1626 36.1767 44.0459 36.38C43.9326 36.58 43.7743 36.7383 43.5709 36.855C43.3676 36.9683 43.1376 37.025 42.8809 37.025ZM42.8809 36.71C43.0709 36.71 43.2393 36.6683 43.3859 36.585C43.5326 36.4983 43.6476 36.3783 43.7309 36.225C43.8176 36.0683 43.8609 35.8883 43.8609 35.685C43.8609 35.4783 43.8176 35.2983 43.7309 35.145C43.6476 34.9917 43.5326 34.8733 43.3859 34.79C43.2393 34.7033 43.0726 34.66 42.8859 34.66C42.6993 34.66 42.5326 34.7033 42.3859 34.79C42.2393 34.8733 42.1226 34.9917 42.0359 35.145C41.9493 35.2983 41.9059 35.4783 41.9059 35.685C41.9059 35.8883 41.9493 36.0683 42.0359 36.225C42.1226 36.3783 42.2393 36.4983 42.3859 36.585C42.5326 36.6683 42.6976 36.71 42.8809 36.71ZM44.9457 37V34.375H45.2857V35.09L45.2507 34.965C45.324 34.765 45.4474 34.6133 45.6207 34.51C45.794 34.4033 46.009 34.35 46.2657 34.35V34.695C46.2524 34.695 46.239 34.695 46.2257 34.695C46.2124 34.6917 46.199 34.69 46.1857 34.69C45.909 34.69 45.6924 34.775 45.5357 34.945C45.379 35.1117 45.3007 35.35 45.3007 35.66V37H44.9457ZM49.3061 37.025C49.0561 37.025 48.8311 36.9683 48.6311 36.855C48.4344 36.7417 48.2794 36.585 48.1661 36.385C48.0528 36.1817 47.9961 35.9483 47.9961 35.685C47.9961 35.4183 48.0528 35.185 48.1661 34.985C48.2794 34.785 48.4344 34.63 48.6311 34.52C48.8311 34.4067 49.0561 34.35 49.3061 34.35C49.5361 34.35 49.7411 34.4017 49.9211 34.505C50.1044 34.6083 50.2494 34.76 50.3561 34.96C50.4661 35.1567 50.5211 35.3983 50.5211 35.685C50.5211 35.9683 50.4678 36.21 50.3611 36.41C50.2544 36.61 50.1094 36.7633 49.9261 36.87C49.7461 36.9733 49.5394 37.025 49.3061 37.025ZM49.3311 36.71C49.5178 36.71 49.6844 36.6683 49.8311 36.585C49.9811 36.4983 50.0978 36.3783 50.1811 36.225C50.2678 36.0683 50.3111 35.8883 50.3111 35.685C50.3111 35.4783 50.2678 35.2983 50.1811 35.145C50.0978 34.9917 49.9811 34.8733 49.8311 34.79C49.6844 34.7033 49.5178 34.66 49.3311 34.66C49.1478 34.66 48.9828 34.7033 48.8361 34.79C48.6894 34.8733 48.5728 34.9917 48.4861 35.145C48.3994 35.2983 48.3561 35.4783 48.3561 35.685C48.3561 35.8883 48.3994 36.0683 48.4861 36.225C48.5728 36.3783 48.6894 36.4983 48.8361 36.585C48.9828 36.6683 49.1478 36.71 49.3311 36.71ZM50.3211 37V36.21L50.3561 35.68L50.3061 35.15V33.29H50.6611V37H50.3211ZM52.7198 37.025C52.4665 37.025 52.2381 36.9683 52.0348 36.855C51.8348 36.7383 51.6765 36.58 51.5598 36.38C51.4431 36.1767 51.3848 35.945 51.3848 35.685C51.3848 35.4217 51.4431 35.19 51.5598 34.99C51.6765 34.79 51.8348 34.6333 52.0348 34.52C52.2348 34.4067 52.4631 34.35 52.7198 34.35C52.9798 34.35 53.2098 34.4067 53.4098 34.52C53.6131 34.6333 53.7715 34.79 53.8848 34.99C54.0015 35.19 54.0598 35.4217 54.0598 35.685C54.0598 35.945 54.0015 36.1767 53.8848 36.38C53.7715 36.58 53.6131 36.7383 53.4098 36.855C53.2065 36.9683 52.9765 37.025 52.7198 37.025ZM52.7198 36.71C52.9098 36.71 53.0781 36.6683 53.2248 36.585C53.3715 36.4983 53.4865 36.3783 53.5698 36.225C53.6565 36.0683 53.6998 35.8883 53.6998 35.685C53.6998 35.4783 53.6565 35.2983 53.5698 35.145C53.4865 34.9917 53.3715 34.8733 53.2248 34.79C53.0781 34.7033 52.9115 34.66 52.7248 34.66C52.5381 34.66 52.3715 34.7033 52.2248 34.79C52.0781 34.8733 51.9615 34.9917 51.8748 35.145C51.7881 35.2983 51.7448 35.4783 51.7448 35.685C51.7448 35.8883 51.7881 36.0683 51.8748 36.225C51.9615 36.3783 52.0781 36.4983 52.2248 36.585C52.3715 36.6683 52.5365 36.71 52.7198 36.71ZM55.8746 37.025C55.6146 37.025 55.3812 36.9683 55.1746 36.855C54.9712 36.7383 54.8112 36.58 54.6946 36.38C54.5779 36.1767 54.5196 35.945 54.5196 35.685C54.5196 35.4217 54.5779 35.19 54.6946 34.99C54.8112 34.79 54.9712 34.6333 55.1746 34.52C55.3812 34.4067 55.6146 34.35 55.8746 34.35C56.0979 34.35 56.2996 34.3933 56.4796 34.48C56.6596 34.5667 56.8012 34.6967 56.9046 34.87L56.6396 35.05C56.5496 34.9167 56.4379 34.8183 56.3046 34.755C56.1712 34.6917 56.0262 34.66 55.8696 34.66C55.6829 34.66 55.5146 34.7033 55.3646 34.79C55.2146 34.8733 55.0962 34.9917 55.0096 35.145C54.9229 35.2983 54.8796 35.4783 54.8796 35.685C54.8796 35.8917 54.9229 36.0717 55.0096 36.225C55.0962 36.3783 55.2146 36.4983 55.3646 36.585C55.5146 36.6683 55.6829 36.71 55.8696 36.71C56.0262 36.71 56.1712 36.6783 56.3046 36.615C56.4379 36.5517 56.5496 36.455 56.6396 36.325L56.9046 36.505C56.8012 36.675 56.6596 36.805 56.4796 36.895C56.2996 36.9817 56.0979 37.025 55.8746 37.025ZM58.4612 37.025C58.2146 37.025 58.0246 36.9583 57.8912 36.825C57.7579 36.6917 57.6912 36.5033 57.6912 36.26V33.795H58.0462V36.24C58.0462 36.3933 58.0846 36.5117 58.1612 36.595C58.2412 36.6783 58.3546 36.72 58.5012 36.72C58.6579 36.72 58.7879 36.675 58.8912 36.585L59.0162 36.84C58.9462 36.9033 58.8612 36.95 58.7612 36.98C58.6646 37.01 58.5646 37.025 58.4612 37.025ZM57.2212 34.67V34.375H58.8462V34.67H57.2212ZM60.6397 37.025C60.3864 37.025 60.158 36.9683 59.9547 36.855C59.7547 36.7383 59.5964 36.58 59.4797 36.38C59.363 36.1767 59.3047 35.945 59.3047 35.685C59.3047 35.4217 59.363 35.19 59.4797 34.99C59.5964 34.79 59.7547 34.6333 59.9547 34.52C60.1547 34.4067 60.383 34.35 60.6397 34.35C60.8997 34.35 61.1297 34.4067 61.3297 34.52C61.533 34.6333 61.6914 34.79 61.8047 34.99C61.9214 35.19 61.9797 35.4217 61.9797 35.685C61.9797 35.945 61.9214 36.1767 61.8047 36.38C61.6914 36.58 61.533 36.7383 61.3297 36.855C61.1264 36.9683 60.8964 37.025 60.6397 37.025ZM60.6397 36.71C60.8297 36.71 60.998 36.6683 61.1447 36.585C61.2914 36.4983 61.4064 36.3783 61.4897 36.225C61.5764 36.0683 61.6197 35.8883 61.6197 35.685C61.6197 35.4783 61.5764 35.2983 61.4897 35.145C61.4064 34.9917 61.2914 34.8733 61.1447 34.79C60.998 34.7033 60.8314 34.66 60.6447 34.66C60.458 34.66 60.2914 34.7033 60.1447 34.79C59.998 34.8733 59.8814 34.9917 59.7947 35.145C59.708 35.2983 59.6647 35.4783 59.6647 35.685C59.6647 35.8883 59.708 36.0683 59.7947 36.225C59.8814 36.3783 59.998 36.4983 60.1447 36.585C60.2914 36.6683 60.4564 36.71 60.6397 36.71ZM62.7045 37V34.375H63.0445V35.09L63.0095 34.965C63.0828 34.765 63.2061 34.6133 63.3795 34.51C63.5528 34.4033 63.7678 34.35 64.0245 34.35V34.695C64.0111 34.695 63.9978 34.695 63.9845 34.695C63.9711 34.6917 63.9578 34.69 63.9445 34.69C63.6678 34.69 63.4511 34.775 63.2945 34.945C63.1378 35.1117 63.0595 35.35 63.0595 35.66V37H62.7045ZM65.4065 37.025C65.1899 37.025 64.9849 36.995 64.7915 36.935C64.5982 36.8717 64.4465 36.7933 64.3365 36.7L64.4965 36.42C64.6032 36.5 64.7399 36.57 64.9065 36.63C65.0732 36.6867 65.2482 36.715 65.4315 36.715C65.6815 36.715 65.8615 36.6767 65.9715 36.6C66.0815 36.52 66.1365 36.415 66.1365 36.285C66.1365 36.1883 66.1049 36.1133 66.0415 36.06C65.9815 36.0033 65.9015 35.9617 65.8015 35.935C65.7015 35.905 65.5899 35.88 65.4665 35.86C65.3432 35.84 65.2199 35.8167 65.0965 35.79C64.9765 35.7633 64.8665 35.725 64.7665 35.675C64.6665 35.6217 64.5849 35.55 64.5215 35.46C64.4615 35.37 64.4315 35.25 64.4315 35.1C64.4315 34.9567 64.4715 34.8283 64.5515 34.715C64.6315 34.6017 64.7482 34.5133 64.9015 34.45C65.0582 34.3833 65.2482 34.35 65.4715 34.35C65.6415 34.35 65.8115 34.3733 65.9815 34.42C66.1515 34.4633 66.2915 34.5217 66.4015 34.595L66.2465 34.88C66.1299 34.8 66.0049 34.7433 65.8715 34.71C65.7382 34.6733 65.6049 34.655 65.4715 34.655C65.2349 34.655 65.0599 34.6967 64.9465 34.78C64.8365 34.86 64.7815 34.9633 64.7815 35.09C64.7815 35.19 64.8115 35.2683 64.8715 35.325C64.9349 35.3817 65.0165 35.4267 65.1165 35.46C65.2199 35.49 65.3315 35.515 65.4515 35.535C65.5749 35.555 65.6965 35.58 65.8165 35.61C65.9399 35.6367 66.0515 35.675 66.1515 35.725C66.2549 35.7717 66.3365 35.84 66.3965 35.93C66.4599 36.0167 66.4915 36.1317 66.4915 36.275C66.4915 36.4283 66.4482 36.5617 66.3615 36.675C66.2782 36.785 66.1549 36.8717 65.9915 36.935C65.8315 36.995 65.6365 37.025 65.4065 37.025Z" fill="#332C2C"/>
<path d="M3.646 33.917C3.574 33.935 3.493 33.944 3.403 33.944C3.313 33.944 3.223 33.944 3.133 33.944C2.521 33.944 1.936 33.836 1.378 33.62C0.82 33.404 0.451 32.99 0.271 32.378C0.217 32.216 0.19 32.036 0.19 31.838C0.19 31.352 0.343 30.911 0.649 30.515C0.721 30.443 0.793 30.398 0.865 30.38C0.919 30.344 0.946 30.38 0.946 30.488C1 31.37 1.306 32 1.864 32.378C2.44 32.774 3.115 32.972 3.889 32.972C4.627 32.972 5.383 32.819 6.157 32.513C6.949 32.207 7.651 31.793 8.263 31.271C9.055 30.569 9.784 29.759 10.45 28.841C11.134 27.923 11.782 26.996 12.394 26.06C12.61 25.7 12.835 25.34 13.069 24.98C13.303 24.62 13.537 24.269 13.771 23.927H7.048C7.012 23.927 6.994 23.909 6.994 23.873C6.994 23.783 7.057 23.675 7.183 23.549C7.327 23.405 7.444 23.333 7.534 23.333H14.149C14.941 22.163 15.76 21.02 16.606 19.904C17.452 18.77 18.307 17.735 19.171 16.799C20.233 15.683 21.34 14.792 22.492 14.126C23.662 13.442 24.715 13.073 25.651 13.019C26.155 12.983 26.605 13.01 27.001 13.1C27.415 13.172 27.748 13.316 28 13.532C28.234 13.712 28.405 13.937 28.513 14.207C28.621 14.477 28.675 14.756 28.675 15.044C28.675 15.116 28.666 15.188 28.648 15.26C28.648 15.332 28.639 15.413 28.621 15.503C28.567 15.791 28.459 16.025 28.297 16.205C28.225 16.277 28.153 16.313 28.081 16.313C27.955 16.313 27.946 16.232 28.054 16.07C28.216 15.854 28.297 15.593 28.297 15.287C28.297 15.125 28.27 14.981 28.216 14.855C28.09 14.513 27.847 14.261 27.487 14.099C27.145 13.919 26.74 13.829 26.272 13.829C25.264 13.829 24.202 14.189 23.086 14.909C22.276 15.431 21.448 16.133 20.602 17.015C19.774 17.879 18.937 18.851 18.091 19.931C17.263 21.011 16.435 22.145 15.607 23.333H19.576C19.738 23.009 19.9 22.685 20.062 22.361C20.242 22.037 20.422 21.713 20.602 21.389C21.268 20.183 21.952 19.031 22.654 17.933C23.374 16.817 24.013 15.809 24.571 14.909C24.625 14.819 24.679 14.774 24.733 14.774C24.805 14.774 24.85 14.81 24.868 14.882C24.886 14.954 24.868 15.017 24.814 15.071C23.986 16.331 23.257 17.663 22.627 19.067C22.015 20.471 21.457 21.893 20.953 23.333H22.276C22.312 23.333 22.33 23.351 22.33 23.387C22.33 23.459 22.258 23.567 22.114 23.711C21.988 23.855 21.871 23.927 21.763 23.927H20.737C20.575 24.395 20.377 25.025 20.143 25.817C19.927 26.591 19.729 27.401 19.549 28.247C19.387 29.093 19.306 29.867 19.306 30.569C19.306 31.217 19.405 31.721 19.603 32.081C19.819 32.441 20.152 32.621 20.602 32.621C20.656 32.621 20.71 32.621 20.764 32.621C20.818 32.621 20.872 32.612 20.926 32.594C21.232 32.54 21.538 32.369 21.844 32.081C22.168 31.793 22.483 31.451 22.789 31.055C23.221 30.497 23.617 29.903 23.977 29.273C24.337 28.643 24.607 28.157 24.787 27.815C24.877 27.671 24.949 27.599 25.003 27.599C25.075 27.599 25.111 27.662 25.111 27.788C25.111 27.86 25.084 27.95 25.03 28.058C24.778 28.508 24.454 29.075 24.058 29.759C23.68 30.425 23.257 31.046 22.789 31.622C22.447 32.018 22.087 32.36 21.709 32.648C21.331 32.936 20.935 33.116 20.521 33.188C20.413 33.206 20.305 33.215 20.197 33.215C20.107 33.233 20.008 33.242 19.9 33.242C19.378 33.242 18.919 33.089 18.523 32.783C18.127 32.495 17.857 32 17.713 31.298C17.677 31.1 17.65 30.893 17.632 30.677C17.614 30.461 17.605 30.254 17.605 30.056C17.605 29.012 17.785 27.959 18.145 26.897C18.523 25.835 18.91 24.845 19.306 23.927H15.148C14.86 24.323 14.581 24.737 14.311 25.169C14.041 25.583 13.762 25.997 13.474 26.411C12.952 27.167 12.322 27.968 11.584 28.814C10.864 29.642 10.072 30.434 9.208 31.19C8.344 31.928 7.435 32.549 6.481 33.053C5.545 33.557 4.6 33.845 3.646 33.917ZM25.7493 32.189C25.3533 32.189 24.9843 32.063 24.6423 31.811C24.3003 31.541 24.1293 31.109 24.1293 30.515C24.1293 29.885 24.2823 29.192 24.5883 28.436C24.8943 27.68 25.1823 27.005 25.4523 26.411C25.5963 26.123 25.7853 25.736 26.0193 25.25C26.2713 24.746 26.5413 24.251 26.8293 23.765H25.5603C25.5063 23.765 25.4793 23.72 25.4793 23.63C25.4793 23.558 25.5063 23.486 25.5603 23.414C25.6143 23.324 25.6773 23.279 25.7493 23.279C26.2533 23.279 26.6313 23.234 26.8833 23.144C27.1353 23.054 27.3513 22.928 27.5313 22.766C27.8193 22.514 28.0983 22.19 28.3683 21.794C28.6563 21.398 28.9353 21.056 29.2053 20.768C29.4033 20.516 29.6463 20.327 29.9343 20.201C30.2403 20.075 30.4383 20.03 30.5283 20.066C30.4383 20.192 30.2943 20.408 30.0963 20.714C29.8983 21.02 29.6913 21.353 29.4753 21.713C29.2593 22.073 29.0613 22.406 28.8813 22.712C28.7013 23.018 28.5843 23.225 28.5303 23.333H31.8783C32.3463 22.307 32.8773 21.227 33.4713 20.093C34.0833 18.959 34.7583 17.879 35.4963 16.853C36.2343 15.809 37.0353 14.9 37.8993 14.126C38.7633 13.352 39.6813 12.812 40.6533 12.506C40.7613 12.488 40.8693 12.47 40.9773 12.452C41.0853 12.434 41.1933 12.425 41.3013 12.425C41.5713 12.425 41.8053 12.488 42.0033 12.614C42.2553 12.776 42.3813 13.064 42.3813 13.478C42.3813 13.766 42.3003 14.117 42.1383 14.531C41.8503 15.251 41.3733 16.025 40.7073 16.853C40.0593 17.681 39.2943 18.527 38.4123 19.391C37.3143 20.453 36.2613 21.389 35.2533 22.199C34.2453 23.009 33.4353 23.648 32.8233 24.116C32.4633 24.89 32.1663 25.565 31.9323 26.141C31.6983 26.699 31.5453 27.104 31.4733 27.356C31.7613 26.924 32.0853 26.456 32.4453 25.952C32.8233 25.43 33.1563 25.025 33.4443 24.737C33.8583 24.323 34.2723 23.972 34.6863 23.684C35.1003 23.396 35.5053 23.234 35.9013 23.198C36.5133 23.144 36.9543 23.225 37.2243 23.441C37.4943 23.639 37.6293 23.936 37.6293 24.332C37.6293 24.728 37.5213 25.169 37.3053 25.655C37.0713 26.213 36.7923 26.771 36.4683 27.329C36.1443 27.887 35.8473 28.427 35.5773 28.949C35.5053 29.093 35.3703 29.372 35.1723 29.786C34.9923 30.182 34.8753 30.56 34.8213 30.92C34.8213 30.938 34.8123 30.965 34.7943 31.001C34.7943 31.037 34.7943 31.073 34.7943 31.109C34.7943 31.307 34.8483 31.46 34.9563 31.568C35.0643 31.658 35.1903 31.703 35.3343 31.703C35.6403 31.703 35.9283 31.604 36.1983 31.406C36.4683 31.208 36.7023 30.992 36.9003 30.758C37.3143 30.308 37.6923 29.813 38.0343 29.273C38.3763 28.733 38.7183 28.157 39.0603 27.545C39.1143 27.473 39.1683 27.437 39.2223 27.437C39.2943 27.437 39.3303 27.491 39.3303 27.599C39.3303 27.689 39.3123 27.761 39.2763 27.815C38.9523 28.409 38.6013 29.003 38.2233 29.597C37.8633 30.191 37.4223 30.749 36.9003 31.271C36.6663 31.505 36.3963 31.721 36.0903 31.919C35.7843 32.099 35.4423 32.189 35.0643 32.189C34.4523 32.189 34.0203 32.018 33.7683 31.676C33.5343 31.316 33.4173 30.92 33.4173 30.488C33.4173 30.146 33.4803 29.804 33.6063 29.462C33.9123 28.67 34.3353 27.914 34.8753 27.194C35.4153 26.474 35.8653 25.727 36.2253 24.953C36.3513 24.719 36.4143 24.503 36.4143 24.305C36.4143 24.089 36.3513 23.927 36.2253 23.819C36.0993 23.711 35.9643 23.657 35.8203 23.657C35.4783 23.657 35.1003 23.81 34.6863 24.116C34.2903 24.404 33.9033 24.773 33.5253 25.223C33.1833 25.619 32.8323 26.078 32.4723 26.6C32.1123 27.104 31.7703 27.644 31.4463 28.22C31.1403 28.742 30.8253 29.291 30.5013 29.867C30.1773 30.425 29.9163 30.902 29.7183 31.298C29.5743 31.604 29.4213 31.802 29.2593 31.892C29.0973 31.982 28.9443 32.027 28.8003 32.027C28.7283 32.027 28.6563 32.018 28.5843 32C28.5123 32 28.4493 32 28.3953 32C28.5573 31.388 28.8543 30.551 29.2863 29.489C29.7363 28.409 30.2673 27.131 30.8793 25.655C31.0053 25.367 31.1313 25.07 31.2573 24.764C31.3833 24.44 31.5273 24.107 31.6893 23.765H28.2873C27.9633 24.323 27.5763 25.052 27.1263 25.952C26.6943 26.834 26.3073 27.689 25.9653 28.517C25.9293 28.625 25.8573 28.823 25.7493 29.111C25.6413 29.381 25.5423 29.687 25.4523 30.029C25.3803 30.353 25.3443 30.659 25.3443 30.947C25.3443 31.181 25.3893 31.379 25.4793 31.541C25.5693 31.703 25.7313 31.784 25.9653 31.784C26.2353 31.784 26.5053 31.694 26.7753 31.514C27.0453 31.316 27.2523 31.1 27.3963 30.866C27.4503 30.794 27.4863 30.758 27.5043 30.758C27.5583 30.758 27.5853 30.812 27.5853 30.92C27.5853 31.082 27.5223 31.226 27.3963 31.352C27.1983 31.568 26.9553 31.766 26.6673 31.946C26.3973 32.108 26.0913 32.189 25.7493 32.189ZM33.0663 23.576C34.1463 22.784 35.1183 21.983 35.9823 21.173C36.8463 20.363 37.7193 19.49 38.6013 18.554C38.8533 18.284 39.1773 17.924 39.5733 17.474C39.9873 17.024 40.3923 16.538 40.7883 16.016C41.1843 15.494 41.4813 14.99 41.6793 14.504C41.8593 14.09 41.9493 13.739 41.9493 13.451C41.9493 12.965 41.7243 12.722 41.2743 12.722C41.0403 12.722 40.7793 12.794 40.4913 12.938C40.2033 13.082 39.9333 13.28 39.6813 13.532C38.8173 14.342 37.9713 15.332 37.1433 16.502C36.3333 17.654 35.5773 18.851 34.8753 20.093C34.1913 21.335 33.5883 22.496 33.0663 23.576ZM41.5021 32.216C40.4581 32.216 39.7201 31.946 39.2881 31.406C39.0721 31.172 38.9191 30.893 38.8291 30.569C38.7391 30.245 38.6941 29.912 38.6941 29.57C38.6941 29.138 38.7481 28.706 38.8561 28.274C38.9641 27.824 39.0991 27.41 39.2611 27.032C39.5131 26.438 39.8461 25.844 40.2601 25.25C40.6741 24.638 41.1691 24.125 41.7451 23.711C42.3391 23.297 42.9871 23.09 43.6891 23.09C44.1571 23.09 44.5261 23.207 44.7961 23.441C45.0661 23.675 45.2011 24.035 45.2011 24.521C45.2011 25.079 45.0301 25.646 44.6881 26.222C44.3461 26.78 43.9141 27.248 43.3921 27.626C42.8701 28.004 42.3301 28.193 41.7721 28.193C41.2681 28.193 40.8271 28.013 40.4491 27.653C40.3411 27.941 40.2511 28.265 40.1791 28.625C40.1071 28.967 40.0711 29.318 40.0711 29.678C40.0711 30.236 40.1791 30.722 40.3951 31.136C40.6291 31.55 41.0431 31.757 41.6371 31.757C42.0691 31.757 42.4831 31.649 42.8791 31.433C43.2931 31.199 43.6621 30.92 43.9861 30.596C44.3461 30.218 44.6881 29.813 45.0121 29.381C45.3361 28.949 45.6511 28.445 45.9571 27.869C45.9931 27.815 46.0201 27.788 46.0381 27.788C46.1101 27.788 46.1461 27.869 46.1461 28.031C46.1461 28.139 46.1101 28.256 46.0381 28.382C45.7681 28.868 45.4531 29.363 45.0931 29.867C44.7331 30.353 44.3641 30.776 43.9861 31.136C43.6441 31.46 43.2751 31.721 42.8791 31.919C42.4831 32.117 42.0241 32.216 41.5021 32.216ZM40.5841 27.248C40.7101 27.428 40.8541 27.563 41.0161 27.653C41.1961 27.725 41.3761 27.761 41.5561 27.761C41.9881 27.761 42.4381 27.599 42.9061 27.275C43.3741 26.933 43.7521 26.537 44.0401 26.087C44.1661 25.889 44.2741 25.628 44.3641 25.304C44.4721 24.98 44.5261 24.674 44.5261 24.386C44.5261 24.134 44.4721 23.918 44.3641 23.738C44.2741 23.54 44.0851 23.441 43.7971 23.441C43.4731 23.441 43.0861 23.639 42.6361 24.035C42.2041 24.431 41.7901 24.944 41.3941 25.574C41.2681 25.79 41.1241 26.042 40.9621 26.33C40.8181 26.618 40.6921 26.924 40.5841 27.248ZM50.9445 32.162C50.4225 32.162 50.0085 32 49.7025 31.676C49.4145 31.352 49.2705 30.947 49.2705 30.461C49.2705 30.227 49.3155 29.957 49.4055 29.651C49.6575 28.859 50.0535 28.076 50.5935 27.302C51.1515 26.51 51.6105 25.727 51.9705 24.953C52.0965 24.701 52.1595 24.476 52.1595 24.278C52.1595 24.08 52.0965 23.936 51.9705 23.846C51.8625 23.738 51.7275 23.684 51.5655 23.684C51.3315 23.684 51.0345 23.783 50.6745 23.981C50.3325 24.161 49.9365 24.512 49.4865 25.034C49.2165 25.358 48.9105 25.754 48.5685 26.222C48.2265 26.69 47.9475 27.113 47.7315 27.491C47.3715 28.103 47.0475 28.724 46.7595 29.354C46.4715 29.966 46.2195 30.533 46.0035 31.055C45.8235 31.469 45.6075 31.739 45.3555 31.865C45.1035 31.973 44.8605 32.018 44.6265 32C44.3925 31.982 44.2125 31.982 44.0865 32C44.5905 31.01 45.0855 29.966 45.5715 28.868C46.0575 27.77 46.4715 26.672 46.8135 25.574C46.9755 25.07 47.1105 24.584 47.2185 24.116C47.3265 23.63 47.3715 23.315 47.3535 23.171V23.117C47.3535 22.973 47.4255 22.937 47.5695 23.009C47.8035 23.135 47.9655 23.324 48.0555 23.576C48.1455 23.81 48.1905 24.08 48.1905 24.386C48.1905 24.728 48.1455 25.097 48.0555 25.493C47.9655 25.871 47.8575 26.213 47.7315 26.519C47.9655 26.195 48.2175 25.871 48.4875 25.547C48.7575 25.205 49.0545 24.881 49.3785 24.575C49.7565 24.197 50.1615 23.873 50.5935 23.603C51.0255 23.315 51.4935 23.171 51.9975 23.171C52.4835 23.171 52.8345 23.279 53.0505 23.495C53.2845 23.711 53.4015 23.999 53.4015 24.359C53.4015 24.737 53.2935 25.169 53.0775 25.655C52.8435 26.213 52.5555 26.771 52.2135 27.329C51.8895 27.887 51.5925 28.427 51.3225 28.949C51.2685 29.057 51.1785 29.228 51.0525 29.462C50.9445 29.678 50.8455 29.921 50.7555 30.191C50.7195 30.317 50.6835 30.452 50.6475 30.596C50.6115 30.722 50.5935 30.857 50.5935 31.001C50.5935 31.181 50.6295 31.352 50.7015 31.514C50.7915 31.658 50.9535 31.73 51.1875 31.73C51.4935 31.73 51.7815 31.631 52.0515 31.433C52.3395 31.217 52.5825 30.992 52.7805 30.758C53.1945 30.308 53.5725 29.813 53.9145 29.273C54.2745 28.715 54.6255 28.13 54.9675 27.518C55.0215 27.446 55.0575 27.41 55.0755 27.41C55.1475 27.41 55.1835 27.491 55.1835 27.653C55.1835 27.761 55.1655 27.842 55.1295 27.896C54.8055 28.49 54.4635 29.075 54.1035 29.651C53.7435 30.209 53.3025 30.749 52.7805 31.271C52.5465 31.505 52.2765 31.712 51.9705 31.892C51.6645 32.072 51.3225 32.162 50.9445 32.162ZM60.5342 32.189C59.9582 32.189 59.5622 32.009 59.3462 31.649C59.1302 31.271 59.0222 30.857 59.0222 30.407C59.0222 30.317 59.0312 30.164 59.0492 29.948C59.0852 29.714 59.1212 29.498 59.1572 29.3C58.9052 29.642 58.5992 30.02 58.2392 30.434C57.8972 30.848 57.5462 31.199 57.1862 31.487C56.6102 31.955 56.0882 32.189 55.6202 32.189C55.1702 32.189 54.8192 32 54.5672 31.622C54.3332 31.244 54.2162 30.767 54.2162 30.191C54.2162 29.453 54.3782 28.706 54.7022 27.95C55.0262 27.194 55.4492 26.483 55.9712 25.817C56.5112 25.133 57.1052 24.548 57.7532 24.062C58.1312 23.792 58.5902 23.576 59.1302 23.414C59.6882 23.234 60.2462 23.144 60.8042 23.144C61.4342 23.144 61.9832 23.243 62.4512 23.441C62.9372 23.621 63.2702 23.882 63.4502 24.224C63.0722 24.71 62.6852 25.313 62.2892 26.033C61.8932 26.735 61.5512 27.374 61.2632 27.95C61.0652 28.346 60.8492 28.841 60.6152 29.435C60.3812 30.011 60.2642 30.506 60.2642 30.92C60.2642 31.1 60.3092 31.28 60.3992 31.46C60.4892 31.64 60.6602 31.73 60.9122 31.73C61.2002 31.73 61.4792 31.622 61.7492 31.406C62.0192 31.19 62.2442 30.974 62.4242 30.758C62.8382 30.308 63.2162 29.813 63.5582 29.273C63.9002 28.733 64.2422 28.157 64.5842 27.545C64.6382 27.473 64.6922 27.437 64.7462 27.437C64.8182 27.437 64.8542 27.491 64.8542 27.599C64.8542 27.689 64.8362 27.761 64.8002 27.815C64.4942 28.409 64.1522 29.003 63.7742 29.597C63.3962 30.191 62.9462 30.749 62.4242 31.271C62.1722 31.523 61.8752 31.739 61.5332 31.919C61.1912 32.099 60.8582 32.189 60.5342 32.189ZM56.2142 31.352C56.5562 31.352 56.9252 31.172 57.3212 30.812C57.7352 30.434 58.1312 29.984 58.5092 29.462C58.9052 28.922 59.2562 28.409 59.5622 27.923C59.8862 27.419 60.1382 27.032 60.3182 26.762C60.6962 26.168 61.0472 25.673 61.3712 25.277C61.6952 24.881 62.1992 24.575 62.8832 24.359C62.9192 24.359 62.9462 24.359 62.9642 24.359C63.0002 24.341 63.0362 24.332 63.0722 24.332C62.9102 24.08 62.6402 23.891 62.2622 23.765C61.8842 23.639 61.5152 23.576 61.1552 23.576C60.5972 23.576 60.0572 23.729 59.5352 24.035C59.0132 24.341 58.5362 24.728 58.1042 25.196C57.6902 25.682 57.2852 26.213 56.8892 26.789C56.4932 27.365 56.1692 27.95 55.9172 28.544C55.6832 29.138 55.5662 29.705 55.5662 30.245C55.5662 30.533 55.6112 30.794 55.7012 31.028C55.8092 31.244 55.9802 31.352 56.2142 31.352Z" fill="#332C2C"/>
<path d="M76.5 30C76.5 32.4415 74.3073 34.5 71.5 34.5C68.6927 34.5 66.5 32.4415 66.5 30C66.5 27.5585 68.6927 25.5 71.5 25.5C74.3073 25.5 76.5 27.5585 76.5 30Z" stroke="#332C2C"/>
<path d="M69.6701 31V28.9H69.8531L70.8131 30.538H70.7171L71.6681 28.9H71.8511V31H71.6381V29.233H71.6891L70.8131 30.733H70.7081L69.8261 29.233H69.8831V31H69.6701ZM72.5354 31V28.9H73.3904C73.6144 28.9 73.8104 28.945 73.9784 29.035C74.1484 29.123 74.2804 29.246 74.3744 29.404C74.4684 29.562 74.5154 29.744 74.5154 29.95C74.5154 30.156 74.4684 30.338 74.3744 30.496C74.2804 30.654 74.1484 30.778 73.9784 30.868C73.8104 30.956 73.6144 31 73.3904 31H72.5354ZM72.7574 30.808H73.3784C73.5644 30.808 73.7254 30.772 73.8614 30.7C73.9994 30.626 74.1064 30.525 74.1824 30.397C74.2584 30.267 74.2964 30.118 74.2964 29.95C74.2964 29.78 74.2584 29.631 74.1824 29.503C74.1064 29.375 73.9994 29.275 73.8614 29.203C73.7254 29.129 73.5644 29.092 73.3784 29.092H72.7574V30.808Z" fill="#332C2C"/>
</svg>
