<?xml version="1.0" standalone="no"?>
<!DOCTYPE svg PUBLIC "-//W3C//DTD SVG 20010904//EN"
 "http://www.w3.org/TR/2001/REC-SVG-20010904/DTD/svg10.dtd">
<svg version="1.0" 
width="77" height="46" viewBox="0 0 77 46" fill="none" " xmlns="http://www.w3.org/2000/svg">
 preserveAspectRatio="xMidYMid meet">

<g transform="translate(0.000000,434.000000) scale(0.100000,-0.100000)"
fill="#000000" stroke="none">
<path d="M4020 3131 c-82 -43 -216 -182 -304 -316 -25 -38 -50 -75 -55 -81
-18 -21 -71 -127 -71 -140 0 -8 -4 -14 -10 -14 -5 0 -10 -5 -10 -11 0 -5 -12
-35 -27 -65 l-26 -54 -99 0 c-87 0 -98 2 -98 18 0 9 9 28 20 42 11 14 20 28
20 32 0 4 11 24 25 44 24 35 33 74 18 74 -15 0 -61 -45 -108 -105 -63 -79 -88
-97 -141 -103 -52 -5 -59 -27 -13 -39 16 -5 30 -12 30 -16 -1 -7 -37 -85 -103
-225 -16 -35 -43 -83 -59 -107 -16 -24 -29 -46 -29 -50 0 -4 -10 -20 -22 -35
-13 -15 -36 -44 -53 -65 -68 -85 -161 -94 -186 -18 -22 69 -13 177 28 333 42
160 44 165 83 168 19 2 40 8 47 14 19 16 3 38 -28 38 -22 0 -29 5 -29 19 0 11
4 22 9 26 5 3 13 20 16 38 4 17 18 56 31 85 13 29 24 56 24 60 0 8 75 169 90
192 36 58 60 105 57 114 -2 6 -21 -16 -42 -49 -21 -33 -49 -76 -61 -95 -36
-56 -125 -210 -188 -325 l-32 -60 -117 -3 c-110 -2 -117 -2 -117 17 0 11 3 21
8 23 4 2 20 23 37 48 84 126 283 358 357 415 81 63 189 105 271 105 47 0 59
-4 87 -30 29 -27 32 -34 26 -70 -3 -22 -3 -40 2 -40 19 0 32 27 32 67 0 37 -6
50 -39 86 l-40 42 -103 -1 c-99 0 -105 -1 -163 -35 -103 -61 -108 -64 -126
-79 -9 -8 -39 -33 -65 -55 -59 -48 -110 -99 -144 -144 -14 -18 -47 -61 -74
-94 -27 -33 -79 -104 -114 -156 l-65 -96 -222 -5 c-123 -3 -227 -8 -230 -12
-4 -4 -5 -14 -2 -23 6 -13 36 -15 212 -15 l205 0 -33 -47 c-18 -27 -46 -70
-61 -98 -16 -27 -49 -76 -73 -108 -23 -31 -43 -60 -43 -63 0 -9 -37 -50 -106
-119 -38 -38 -88 -75 -137 -100 -74 -37 -82 -39 -170 -39 -118 0 -158 20 -184
95 -20 54 -38 62 -53 23 -21 -53 -12 -92 29 -137 l40 -42 113 0 c123 0 109 -4
303 97 59 31 281 260 342 353 29 44 59 87 68 96 8 9 15 19 15 23 0 4 10 20 22
36 l22 30 128 0 c146 0 143 3 103 -84 -14 -30 -25 -59 -25 -64 0 -5 -9 -37
-20 -71 -41 -130 -36 -266 13 -333 34 -46 129 -62 192 -32 43 20 115 91 140
138 23 42 35 42 48 0 12 -36 34 -62 69 -80 31 -16 68 -19 68 -5 0 5 17 18 38
28 20 11 39 28 40 38 3 15 1 14 -20 -5 -33 -32 -65 -42 -90 -29 -18 10 -20 18
-15 78 3 36 15 89 27 116 45 104 66 150 106 229 l41 81 107 3 c58 1 106 -1
106 -5 0 -12 -24 -76 -38 -100 -7 -12 -12 -26 -12 -32 0 -6 -11 -35 -25 -65
-14 -30 -25 -58 -25 -61 0 -3 -9 -26 -20 -51 -11 -24 -23 -58 -27 -74 -3 -17
-9 -30 -13 -30 -7 0 -30 -76 -30 -98 0 -6 6 -12 14 -15 15 -6 76 48 76 66 0
15 135 243 186 317 25 35 64 81 87 102 76 69 157 73 143 8 -5 -27 -91 -183
-130 -235 -24 -32 -39 -68 -55 -128 -13 -50 8 -101 52 -127 45 -28 56 -26 125
21 53 34 73 54 120 114 4 6 12 19 16 30 8 18 10 16 18 -15 22 -80 35 -104 70
-133 55 -45 126 -49 199 -12 29 15 58 33 64 40 5 7 21 16 35 20 14 3 20 3 14
-2 -7 -4 -14 -19 -15 -33 -4 -23 -1 -25 29 -23 37 1 78 33 88 67 33 108 156
313 241 398 72 73 143 86 143 25 0 -24 -54 -135 -115 -235 -51 -83 -69 -141
-60 -188 8 -44 56 -84 100 -84 37 0 85 18 85 32 0 4 5 8 10 8 6 0 22 12 36 28
76 84 79 85 90 24 9 -52 18 -66 57 -86 32 -18 35 -18 73 0 21 10 69 49 107 87
l67 68 0 -43 c0 -58 18 -89 62 -111 37 -18 38 -18 90 6 50 23 138 99 138 120
0 5 10 23 23 40 28 41 57 94 57 107 0 22 -20 8 -35 -25 -40 -84 -152 -213
-187 -216 -60 -5 -61 -4 -56 69 3 37 13 81 21 97 9 17 30 59 47 94 39 78 68
131 84 151 7 8 18 27 25 42 12 23 12 30 1 43 -52 63 -204 67 -319 10 -75 -38
-191 -176 -237 -284 -20 -46 -91 -145 -132 -185 -32 -30 -49 -39 -79 -40 l-38
-1 0 50 c1 28 8 64 17 80 8 17 39 75 67 130 29 55 56 104 61 110 5 6 14 32 20
58 17 65 1 103 -49 117 -68 18 -120 -7 -224 -107 l-63 -61 1 79 c0 60 -4 82
-15 89 -19 12 -40 -6 -40 -35 0 -43 -87 -284 -117 -322 -16 -21 -42 -58 -58
-81 -42 -64 -102 -101 -172 -108 -54 -6 -60 -4 -83 21 -23 24 -25 34 -25 116
1 107 9 119 62 95 36 -15 41 -15 87 2 98 38 165 131 166 229 0 44 -4 55 -26
72 -31 25 -98 28 -147 8 -56 -24 -151 -137 -201 -239 -107 -223 -226 -347
-279 -293 -19 18 -22 41 -7 50 6 3 10 14 10 23 0 9 38 93 85 186 47 93 85 180
85 193 0 39 -36 81 -75 89 -57 10 -99 -12 -185 -98 -45 -44 -84 -77 -87 -74
-9 8 27 97 51 128 12 15 27 27 34 27 15 1 16 13 2 27 -13 13 20 89 89 203 28
46 51 86 51 88 0 4 53 86 60 93 3 3 17 24 32 47 15 23 72 87 127 143 91 93
103 101 133 98 31 -3 33 -5 36 -45 3 -48 -29 -123 -73 -170 -14 -15 -25 -33
-25 -39 0 -16 -327 -346 -379 -383 -31 -22 -38 -31 -25 -31 10 0 35 15 54 33
19 17 57 50 84 71 26 22 58 49 70 60 139 132 176 171 220 231 84 113 106 160
106 221 0 42 -4 55 -19 64 -34 18 -94 10 -151 -19z m303 -733 c14 -81 -38
-180 -115 -219 -38 -19 -84 -24 -105 -11 -40 25 8 126 105 220 33 32 51 42 77
42 29 0 33 -4 38 -32z m1166 16 c31 -15 31 -17 15 -35 -9 -10 -22 -19 -29 -19
-20 0 -71 -62 -129 -155 -75 -120 -182 -254 -213 -266 -42 -16 -63 -11 -74 19
-16 39 6 140 45 208 17 31 36 65 43 77 24 43 125 138 171 161 56 28 126 32
171 10z"/>
<path d="M5965 2323 c-37 -10 -121 -63 -152 -95 -17 -18 -43 -57 -59 -87 -37
-73 -39 -182 -5 -257 29 -60 103 -132 177 -169 48 -24 66 -28 148 -28 82 -1
99 3 157 30 58 27 128 87 162 139 17 26 47 125 47 155 0 59 -42 150 -95 207
-79 86 -127 106 -255 109 -58 1 -114 -1 -125 -4z m250 -81 c52 -26 107 -80
129 -127 21 -45 20 -205 -2 -213 -6 -2 -12 -9 -12 -16 0 -8 -22 -33 -48 -58
-40 -37 -60 -48 -122 -63 -65 -16 -81 -16 -139 -5 -79 15 -105 27 -152 72
-102 96 -107 242 -12 348 21 24 90 65 143 84 34 13 175 -2 215 -22z"/>
<path d="M5956 2064 c-8 -20 -8 -88 0 -108 11 -27 24 -7 24 37 l0 42 21 -32
c12 -18 24 -33 27 -33 4 0 16 14 27 30 l20 30 5 -42 c3 -24 10 -42 15 -40 13
3 13 124 0 129 -6 2 -21 -17 -34 -42 -13 -25 -27 -45 -31 -45 -4 0 -18 20 -31
45 -26 49 -34 54 -43 29z"/>
<path d="M6142 2013 l3 -68 41 -3 c28 -2 47 3 62 15 59 50 22 123 -63 123
l-46 0 3 -67z m106 29 c6 -8 12 -21 12 -28 0 -23 -35 -53 -65 -56 -30 -3 -30
-3 -33 56 l-3 58 38 -6 c21 -4 44 -15 51 -24z"/>
<path d="M2960 1780 c0 -5 5 -10 10 -10 6 0 10 5 10 10 0 6 -4 10 -10 10 -5 0
-10 -4 -10 -10z"/>
<path d="M3340 1750 l0 -40 -52 5 c-72 8 -103 -15 -103 -75 0 -34 6 -47 29
-66 24 -21 35 -24 84 -20 l57 4 3 116 c2 75 -1 116 -8 116 -5 0 -10 -18 -10
-40z m-27 -67 c44 -50 2 -123 -61 -106 -38 10 -50 73 -20 111 15 18 62 15 81
-5z"/>
<path d="M4052 1750 c-11 -22 -16 -43 -11 -46 5 -3 9 -36 9 -75 0 -55 3 -69
15 -69 12 0 15 14 15 66 0 57 3 67 20 71 26 7 25 17 -2 35 -24 16 -17 38 12
38 10 0 22 5 25 10 4 6 -8 10 -28 10 -31 0 -37 -5 -55 -40z"/>
<path d="M4700 1752 l0 -39 -47 4 c-39 4 -52 1 -70 -17 -33 -30 -32 -92 3
-127 24 -23 30 -25 82 -19 31 4 60 10 65 15 4 4 6 55 5 112 -3 90 -5 104 -20
107 -15 3 -18 -4 -18 -36z m-19 -62 c14 -8 19 -21 19 -48 0 -48 -14 -62 -60
-62 -30 0 -39 5 -48 25 -17 36 -15 52 8 75 22 22 51 26 81 10z"/>
<path d="M5175 1733 c-12 -18 -14 -28 -7 -31 7 -2 12 -25 12 -56 0 -61 20 -96
56 -96 30 0 31 12 2 25 -19 8 -24 19 -26 63 -3 47 -1 54 17 59 22 6 29 33 9
33 -6 0 -19 7 -28 15 -16 14 -19 13 -35 -12z"/>
<path d="M2772 1718 c-7 -7 -12 -18 -12 -26 0 -24 -32 -82 -44 -82 -7 0 -18
22 -25 50 -12 47 -26 68 -38 57 -5 -6 35 -126 50 -144 16 -22 26 -15 52 42 13
30 29 55 34 55 5 0 12 -15 15 -34 4 -19 15 -45 26 -58 17 -20 20 -21 33 -8 20
21 58 138 46 145 -8 6 -29 -34 -29 -56 0 -5 -7 -21 -16 -35 l-17 -24 -12 24
c-7 13 -18 40 -25 60 -13 42 -22 50 -38 34z"/>
<path d="M3058 1719 c-10 -5 -22 -19 -28 -30 -9 -16 -6 -24 16 -44 16 -15 39
-25 55 -25 18 0 29 -5 29 -14 0 -25 -25 -36 -66 -29 -36 6 -38 5 -25 -10 19
-23 83 -22 104 1 33 36 18 63 -43 79 -25 7 -35 15 -35 29 0 15 8 19 35 21 55
2 56 3 36 18 -23 17 -53 19 -78 4z"/>
<path d="M3630 1641 c0 -59 4 -90 10 -86 6 3 10 30 10 60 0 56 16 85 48 85 34
0 47 -19 52 -76 7 -77 30 -86 30 -11 0 67 24 96 68 81 25 -9 27 -14 30 -72 2
-44 7 -62 15 -59 8 3 12 26 11 67 -1 53 -5 67 -24 82 -27 22 -46 23 -83 3 -25
-13 -31 -13 -52 1 -18 12 -31 13 -58 6 -24 -7 -39 -6 -46 1 -8 8 -11 -15 -11
-82z"/>
<path d="M4203 1723 c-29 -6 -63 -49 -63 -80 0 -54 37 -92 91 -93 56 0 98 57
83 114 -9 39 -64 68 -111 59z m74 -54 c10 -20 10 -34 2 -58 -10 -27 -15 -31
-49 -31 -29 0 -41 6 -54 25 -21 32 -20 44 6 72 30 32 78 28 95 -8z"/>
<path d="M4834 1720 c-37 -15 -66 -61 -60 -95 8 -41 49 -75 90 -75 87 0 119
127 42 164 -38 18 -42 18 -72 6z m73 -42 c27 -25 29 -40 7 -73 -13 -19 -25
-25 -54 -25 -33 0 -39 4 -49 30 -25 73 41 120 96 68z"/>
<path d="M5046 1720 c-45 -14 -66 -39 -66 -80 0 -44 37 -90 72 -90 37 0 68 11
68 25 0 8 -14 11 -47 8 -47 -5 -48 -4 -61 28 -11 30 -10 37 6 59 21 28 66 38
88 19 11 -9 14 -8 14 4 0 13 -30 39 -42 36 -2 0 -16 -5 -32 -9z"/>
<path d="M5353 1723 c-39 -7 -66 -52 -60 -98 7 -48 36 -75 82 -75 48 0 76 27
82 80 4 38 1 48 -19 66 -26 25 -53 33 -85 27z m58 -33 c14 -8 19 -21 19 -48 0
-46 -14 -62 -55 -62 -41 0 -55 16 -55 62 0 51 42 74 91 48z"/>
<path d="M5650 1717 c-54 -27 -24 -96 43 -97 20 0 27 -5 27 -20 0 -17 -7 -20
-50 -20 -27 0 -50 -4 -50 -10 0 -14 70 -24 99 -14 21 8 26 16 26 44 0 33 -2
36 -45 46 -34 8 -45 15 -45 30 0 15 7 19 39 20 44 0 59 18 24 28 -32 8 -40 7
-68 -7z"/>
<path d="M2960 1640 c0 -47 4 -80 10 -80 6 0 10 33 10 80 0 47 -4 80 -10 80
-6 0 -10 -33 -10 -80z"/>
<path d="M3426 1689 c-30 -36 -33 -59 -9 -97 24 -36 32 -42 71 -42 47 0 69 14
82 55 22 66 -10 115 -76 115 -35 0 -47 -5 -68 -31z m106 -6 c20 -18 24 -73 6
-91 -7 -7 -29 -12 -50 -12 -32 0 -40 4 -48 26 -14 37 -12 52 10 74 24 24 57
26 82 3z"/>
<path d="M4355 1687 c-11 -58 -2 -121 18 -125 14 -3 17 4 17 48 0 57 13 90 35
90 8 0 15 5 15 10 0 6 -18 10 -40 10 -36 0 -40 -2 -45 -33z"/>
<path d="M5510 1640 c0 -47 4 -80 10 -80 6 0 10 18 10 40 0 47 24 100 45 100
8 0 15 5 15 10 0 6 -18 10 -40 10 l-40 0 0 -80z"/>
</g>
</svg>
